<svg width="14" height="14" viewBox="0 0 14 14" fill="none" xmlns="http://www.w3.org/2000/svg">
<path d="M12.9002 11.2997C12.9002 11.5762 12.6762 11.8003 12.3997 11.8003H1.09999C1.00025 11.8003 1.00024 11.6996 1.00024 11.6996C1.00024 11.6996 1.00024 11.6996 1.00024 11.6996V11.2C1.04683 10.7088 1.1954 10.2328 1.43647 9.80234C1.89015 8.99225 2.40024 8.15385 2.40024 7.22537V6.09875C2.40024 4.85363 2.86549 3.68588 3.62712 2.81296C4.48614 1.82842 5.33104 0.460994 6.57661 0.0662802C6.71289 0.0230931 6.85486 0 7.00012 0C7.01701 0 7.03385 0.000312128 7.05064 0.000931679C8.53801 0.055802 9.60557 1.85932 10.5048 3.04531C11.1439 3.88806 11.5002 4.96152 11.5002 6.09963V7.32512C11.5002 8.2536 12.0103 9.092 12.464 9.90209C12.7051 10.3326 12.8537 10.8086 12.9002 11.2997ZM7.00012 12.5002C6.17183 12.5002 5.51123 13.3031 6.20434 13.7566C6.43813 13.9096 6.71268 14 7.00012 14C7.28755 14 7.5621 13.9096 7.7959 13.7566C8.48901 13.3031 7.82841 12.5002 7.00012 12.5002ZM9.73923 5.95206C9.78071 6.04848 9.7949 6.19937 9.89987 6.19938C9.89987 6.19938 9.89987 6.19938 9.89987 6.19938C10.0005 6.19937 10.0005 6.09884 10.0005 6.09875C10.0005 6.09875 10.0005 6.09875 10.0005 6.09875C10.0005 5.39875 9.80012 4.69875 9.40024 4.19912C9.05119 3.763 8.54947 3.40222 8.02834 3.25121C7.87844 3.20777 7.71072 3.1884 7.60037 3.29875C7.50247 3.39665 7.67673 3.53926 7.79467 3.61179C8.73194 4.18812 9.35661 5.06265 9.73923 5.95206Z" fill="#F83E3C"/>
</svg>
