<svg width="40" height="40" viewBox="0 0 40 40" fill="none" xmlns="http://www.w3.org/2000/svg">
<path d="M35.5427 12.962C34.6912 10.9512 33.4759 9.14826 31.9288 7.60119C30.3818 6.05412 28.5749 4.83485 26.5681 3.98736C24.4893 3.10789 22.2786 2.66016 20 2.66016C17.7214 2.66016 15.5147 3.10389 13.4319 3.98736C11.4212 4.83885 9.61823 6.05412 8.07116 7.60119C6.52409 9.14826 5.30482 10.9552 4.45733 12.962C3.57786 15.0407 3.13013 17.2514 3.13013 19.53C3.13013 21.8087 3.57786 24.0153 4.45733 26.0981C5.30882 28.1089 6.52409 29.9118 8.07116 31.4589C9.61823 33.0059 11.4251 34.2252 13.4319 35.0727C15.5107 35.9522 17.7214 36.3999 20 36.3999C22.2786 36.3999 24.4853 35.9522 26.5681 35.0727C28.5789 34.2212 30.3818 33.0059 31.9288 31.4589C33.4759 29.9118 34.6952 28.1049 35.5427 26.0981C36.4222 24.0193 36.8699 21.8087 36.8699 19.53C36.8699 17.2514 36.4262 15.0447 35.5427 12.962ZM20 34.641C11.669 34.641 4.88907 27.861 4.88907 19.53C4.88907 11.199 11.669 4.4191 20 4.4191C28.331 4.4191 35.1109 11.199 35.1109 19.53C35.1109 27.861 28.331 34.641 20 34.641ZM25.053 19.3861L17.9173 14.3691C17.5895 14.1413 17.1497 14.3731 17.1497 14.7729V24.8069C17.1497 25.2066 17.5895 25.4385 17.9173 25.2106L25.057 20.1936C25.3368 19.9978 25.3328 19.582 25.053 19.3861Z" fill="white"/>
</svg>
