<svg width="16" height="17" viewBox="0 0 16 17" fill="none" xmlns="http://www.w3.org/2000/svg">
<path d="M13.6875 12V14.625C13.6875 14.8571 13.6019 15.0796 13.4495 15.2437C13.2972 15.4078 13.0905 15.5 12.875 15.5H3.125C2.90951 15.5 2.70285 15.4078 2.55048 15.2437C2.3981 15.0796 2.3125 14.8571 2.3125 14.625V12H13.6875ZM8 12.875C7.78451 12.875 7.57785 12.9672 7.42548 13.1313C7.2731 13.2954 7.1875 13.5179 7.1875 13.75C7.1875 13.9821 7.2731 14.2046 7.42548 14.3687C7.57785 14.5328 7.78451 14.625 8 14.625C8.21549 14.625 8.42215 14.5328 8.57452 14.3687C8.7269 14.2046 8.8125 13.9821 8.8125 13.75C8.8125 13.5179 8.7269 13.2954 8.57452 13.1313C8.42215 12.9672 8.21549 12.875 8 12.875ZM12.875 1.5C13.0905 1.5 13.2972 1.59219 13.4495 1.75628C13.6019 1.92038 13.6875 2.14294 13.6875 2.375V11.125H2.3125V2.375C2.3125 2.14294 2.3981 1.92038 2.55048 1.75628C2.70285 1.59219 2.90951 1.5 3.125 1.5H12.875Z" fill="#FF3E84"/>
</svg>
