<svg width="13" height="13" viewBox="0 0 13 13" fill="currentColor" xmlns="http://www.w3.org/2000/svg">
<g clip-path="url(#clip0_4323_3366)">
<path d="M11.3571 7.79326V6.54586C11.3571 4.99486 10.0953 3.73306 8.54435 3.73306H3.7013V5.00536L0.628849 3.16186L3.7013 1.31836V2.59081H8.54435C9.59615 2.59081 10.5881 3.00346 11.3373 3.75256C12.0866 4.50166 12.4991 5.49361 12.4991 6.54586V7.79356L11.3571 7.79326ZM9.3269 10.5002H4.48385C3.43205 10.5002 2.4401 10.0875 1.69085 9.33841C0.941599 8.58931 0.529099 7.59736 0.529099 6.54586V5.29786H1.67105V6.54586C1.67105 8.09671 2.93285 9.35851 4.48385 9.35851H9.3269V8.08576L12.3993 9.92926L9.3269 11.7728V10.5002Z"/>
</g>
<defs>
<clipPath id="clip0_4323_3366">
<rect width="12" height="12" fill="white" transform="translate(0.5 0.5)"/>
</clipPath>
</defs>
</svg>
