<svg width="21" height="21" viewBox="0 0 21 21" fill="none" xmlns="http://www.w3.org/2000/svg">
<path d="M10.5652 4.59375C4.26523 4.59375 0.458984 11.025 0.458984 11.025C0.458984 11.025 4.85586 17.2594 10.5652 17.2594C16.2746 17.2594 20.6715 11.025 20.6715 11.025C20.6715 11.025 16.8652 4.59375 10.5652 4.59375ZM17.0621 13.3875C14.9621 15.1594 12.7309 16.275 10.4996 16.275C8.26836 16.275 6.03711 15.225 3.93711 13.3875C3.21523 12.7312 2.49336 12.075 1.90273 11.3531C1.77148 11.2219 1.70586 11.0906 1.57461 10.9594C1.64023 10.8281 1.77148 10.6969 1.83711 10.5656C2.36211 9.84375 3.01836 9.12187 3.74023 8.46562C5.77461 6.62812 8.00586 5.5125 10.4996 5.5125C12.9934 5.5125 15.2246 6.62812 17.259 8.46562C17.9809 9.12187 18.5715 9.84375 19.1621 10.5656C19.2277 10.6969 19.359 10.8281 19.4246 10.9594C19.359 11.0906 19.2277 11.2219 19.0965 11.3531C18.5059 12.0094 17.8496 12.7312 17.0621 13.3875Z" fill="#0C0C0C"/>
<path d="M10.4996 7.08789C8.53086 7.08789 7.02148 8.66289 7.02148 10.566C7.02148 12.5348 8.59648 14.0441 10.4996 14.0441C12.4684 14.0441 13.9777 12.4691 13.9777 10.566C13.9777 8.66289 12.4027 7.08789 10.4996 7.08789ZM10.4996 13.1254C9.12148 13.1254 8.00586 12.0098 8.00586 10.6316C8.00586 9.25352 9.12148 8.13789 10.4996 8.13789C11.8777 8.13789 12.9934 9.25352 12.9934 10.6316C12.9934 11.9441 11.8777 13.1254 10.4996 13.1254Z" fill="#0C0C0C"/>
</svg>
