<svg width="12" height="13" viewBox="0 0 12 13" fill="none" xmlns="http://www.w3.org/2000/svg">
<path d="M11.6233 0.310163C11.4087 0.135163 11.1393 0.0408266 10.8618 0.0449281H1.16432C0.527216 0.0531313 0.0131531 0.567194 0.00631714 1.20294C0.0131531 1.47774 0.106122 1.74434 0.271552 1.96446L4.24323 6.66348V10.5695C4.23366 10.7541 4.33893 10.9264 4.50847 11.0002L7.02409 12.258C7.09382 12.299 7.17448 12.3223 7.25651 12.325C7.34811 12.3182 7.43835 12.2963 7.52175 12.258C7.65983 12.1568 7.74597 11.9982 7.75417 11.8273V6.6293L11.7231 1.93165C11.9227 1.70469 12.0184 1.40528 11.9883 1.1045C12.0171 0.79278 11.879 0.489264 11.6233 0.310163ZM11.0272 1.30274L6.92292 6.13438C6.84636 6.22872 6.79987 6.34356 6.7903 6.46524V10.9988L5.26725 10.2373V6.46387C5.27409 6.33946 5.22487 6.21915 5.13464 6.13301L1.03171 1.30274C1.03171 1.26993 0.998895 1.23575 0.998895 1.2043C0.993427 1.11817 1.06042 1.04434 1.14655 1.03887H10.8618C10.8987 1.03477 10.9342 1.04708 10.9602 1.07169C10.9862 1.10176 11.0081 1.13458 11.0272 1.17012C11.06 1.2084 11.06 1.26446 11.0272 1.30274Z" fill="#FAFAFA"/>
</svg>
