<svg width="13" height="13" viewBox="0 0 13 13" fill="currentColor" xmlns="http://www.w3.org/2000/svg">
<path d="M10 6.48183C10 6.31313 9.93709 6.15091 9.82577 6.03152L7.17241 3.18687C6.94011 2.93771 6.56503 2.93771 6.33273 3.18687C6.10042 3.43604 6.10042 3.83834 6.33273 4.0875L7.98911 5.86411H2.59407C2.26618 5.86411 2 6.14961 2 6.5013C2 6.85298 2.26618 7.13849 2.59407 7.13849H7.95644L6.30006 8.9125C6.06776 9.16166 6.06776 9.56396 6.30006 9.81313C6.41621 9.93771 6.56745 10 6.7199 10C6.87235 10 7.02359 9.93771 7.13975 9.81313L9.77375 6.98795C9.90805 6.87115 10 6.69985 10 6.5C10 6.49611 9.99879 6.49481 9.99879 6.49092C9.99758 6.48832 10 6.48572 10 6.48183Z" />
</svg>
