<svg width="16" height="16" viewBox="0 0 16 16" fill="none" xmlns="http://www.w3.org/2000/svg">
<g clip-path="url(#clip0_3370_2341)">
<path d="M8 16C3.582 16 0 12.418 0 8C0 3.582 3.582 0 8 0C12.418 0 16 3.582 16 8C16 12.418 12.418 16 8 16ZM8.66667 8.39267V4.66467C8.66667 4.302 8.368 4 8 4C7.62933 4 7.33333 4.29733 7.33333 4.66467V8.66867C7.33277 8.75518 7.34933 8.84096 7.38205 8.92105C7.41477 9.00114 7.46302 9.07396 7.524 9.13533L9.41867 11.03C9.48048 11.0914 9.55381 11.1401 9.63446 11.1731C9.71511 11.2061 9.80149 11.2229 9.88864 11.2225C9.97578 11.222 10.062 11.2044 10.1423 11.1706C10.2226 11.1367 10.2955 11.0874 10.3567 11.0253C10.4808 10.9011 10.551 10.7329 10.5519 10.5573C10.5527 10.3817 10.4843 10.2128 10.3613 10.0873L8.66667 8.39267Z" fill="#FF3E84"/>
</g>
<defs>
<clipPath id="clip0_3370_2341">
<rect width="16" height="16" fill="white"/>
</clipPath>
</defs>
</svg>
