<svg width="19" height="18" viewBox="0 0 19 18" fill="none" xmlns="http://www.w3.org/2000/svg">
<path d="M17.1043 1.46553L17.034 1.39521C15.4133 -0.225488 12.759 -0.225488 11.1383 1.39521L7.3801 5.15342C5.7594 6.77412 5.7594 9.42842 7.3801 11.0491L7.45042 11.1194C7.58401 11.253 7.72815 11.3761 7.8758 11.4886L9.25041 10.114C9.0887 10.019 8.93752 9.90654 8.80042 9.76943L8.7301 9.69912C7.8512 8.82022 7.8512 7.38584 8.7301 6.50693L12.4883 2.74873C13.3672 1.86982 14.8016 1.86982 15.6805 2.74873L15.7508 2.81904C16.6297 3.69795 16.6297 5.13232 15.7508 6.01123L14.0528 7.70928C14.3481 8.43701 14.4887 9.21397 14.4746 9.99092L17.1043 7.36123C18.725 5.74053 18.725 3.08623 17.1043 1.46553ZM11.5496 6.87959C11.416 6.746 11.2719 6.62295 11.1242 6.51045L9.74963 7.88506C9.91135 7.97998 10.0625 8.09248 10.1996 8.22959L10.2699 8.2999C11.1489 9.17881 11.1489 10.6132 10.2699 11.4921L6.51174 15.2503C5.63284 16.1292 4.19846 16.1292 3.31956 15.2503L3.24924 15.18C2.37034 14.3011 2.37034 12.8667 3.24924 11.9878L4.95081 10.2897C4.65549 9.56201 4.51487 8.78506 4.52893 8.0081L1.89924 10.6378C0.27854 12.2585 0.27854 14.9128 1.89924 16.5335L1.96956 16.6038C3.59026 18.2245 6.24456 18.2245 7.86526 16.6038L11.6235 12.8456C13.2442 11.2249 13.2442 8.57061 11.6235 6.9499L11.5496 6.87959Z" fill="white"/>
</svg>
