<svg xmlns="http://www.w3.org/2000/svg" width="23" height="23" viewBox="0 0 23 23" fill="none">
  <path d="M10.5168 5.30409C10.7189 4.21378 12.2811 4.21378 12.4832 5.30409L12.5217 5.51161C12.6663 6.29154 13.6179 6.60074 14.1933 6.05474L14.3464 5.90946C15.1508 5.14619 16.4147 6.06446 15.9373 7.06534L15.8465 7.25585C15.505 7.9718 16.0931 8.78128 16.8796 8.67777L17.0888 8.65023C18.1882 8.50553 18.671 9.99134 17.6965 10.5205L17.511 10.6212C16.8139 10.9997 16.8139 12.0003 17.511 12.3788L17.6965 12.4795C18.671 13.0087 18.1882 14.4945 17.0888 14.3498L16.8796 14.3222C16.0931 14.2187 15.505 15.0282 15.8465 15.7442L15.9373 15.9347C16.4147 16.9355 15.1508 17.8538 14.3464 17.0905L14.1933 16.9453C13.6179 16.3993 12.6663 16.7085 12.5217 17.4884L12.4832 17.6959C12.2811 18.7862 10.7189 18.7862 10.5168 17.6959L10.4783 17.4884C10.3337 16.7085 9.3821 16.3993 8.8067 16.9453L8.6536 17.0905C7.84922 17.8538 6.58532 16.9355 7.06267 15.9347L7.15353 15.7442C7.49499 15.0282 6.90687 14.2187 6.12044 14.3222L5.91118 14.3498C4.81178 14.4945 4.32901 13.0087 5.3035 12.4795L5.48898 12.3788C6.18606 12.0003 6.18606 10.9997 5.48898 10.6212L5.3035 10.5205C4.32901 9.99134 4.81178 8.50553 5.91118 8.65023L6.12043 8.67777C6.90687 8.78128 7.49499 7.97181 7.15353 7.25585L7.06267 7.06534C6.58532 6.06447 7.84922 5.14619 8.6536 5.90946L8.8067 6.05474C9.3821 6.60074 10.3337 6.29155 10.4783 5.51161L10.5168 5.30409Z" fill="#FF5262"/>
  <path d="M9 12L10.2929 13.2929C10.6834 13.6834 11.3166 13.6834 11.7071 13.2929L15 10" stroke="white" stroke-linecap="round"/>
</svg>