<svg width="37" height="18" viewBox="0 0 37 18" fill="none" xmlns="http://www.w3.org/2000/svg">
<rect width="37" height="18" rx="3" fill="url(#paint0_linear_464_4789)"/>
<path d="M6.648 7.456H8.364V3.22H9.192V7.456H10.632V8.236H9.192V8.62C9.792 9.244 10.38 9.94 10.98 10.696L10.488 11.428C9.984 10.576 9.552 9.892 9.192 9.364V14.2H8.364V9.58C7.968 10.636 7.44 11.608 6.768 12.472L6.396 11.536C7.284 10.564 7.932 9.46 8.316 8.236H6.648V7.456ZM10.176 4L10.824 4.084C10.752 5.092 10.56 5.992 10.272 6.784L9.684 6.592C9.936 5.848 10.104 4.984 10.176 4ZM7.32 4.204C7.5 4.936 7.668 5.776 7.824 6.724L7.224 6.868C7.08 6.016 6.9 5.2 6.684 4.408L7.32 4.204ZM13.86 3.184H14.688V3.976H17.184V4.684H14.688V5.488H16.848V6.184H14.688V7H17.496V7.72H11.016V7H13.86V6.184H11.628V5.488H13.86V4.684H11.292V3.976H13.86V3.184ZM12.492 10.744V11.596H15.984V10.744H12.492ZM15.984 10.072V9.184H12.492V10.072H15.984ZM12.492 12.256V14.176H11.676V8.476H16.824V13.156C16.824 13.792 16.488 14.116 15.84 14.116H15L14.784 13.348L15.6 13.396C15.852 13.396 15.984 13.252 15.984 12.976V12.256H12.492ZM18.816 10.348H23.544V9.172H24.432V10.348H29.208V11.188H24.432V14.212H23.544V11.188H18.816V10.348ZM27.624 8.992H25.416C24.696 8.992 24.336 8.644 24.336 7.948V7.012C23.76 7.252 23.172 7.468 22.572 7.684L22.092 6.964C22.908 6.7 23.652 6.412 24.336 6.112V3.364H25.164V5.728C26.388 5.128 27.396 4.456 28.188 3.736L28.776 4.336C27.744 5.212 26.544 5.98 25.164 6.64V7.78C25.164 8.056 25.332 8.2 25.668 8.2H27.468C27.78 8.2 28.008 8.14 28.14 8.02C28.308 7.852 28.428 7.372 28.488 6.592L29.304 6.856C29.208 7.864 29.016 8.488 28.752 8.704C28.512 8.896 28.128 8.992 27.624 8.992ZM20.472 6.256C20.004 6.664 19.488 7.06 18.924 7.432L18.648 6.544C20.148 5.56 21.24 4.444 21.936 3.172L22.668 3.508C22.308 4.192 21.864 4.84 21.312 5.44V9.412H20.472V6.256Z" white"/>
<defs>
<linearGradient id="paint0_linear_464_4789" x1="40.6098" y1="9.42857" x2="-1.28271e-07" y2="9.42857" gradientUnits="userSpaceOnUse">
<stop stop-color="#F7A1A3"/>
<stop offset="1" stop-color="#F94D56"/>
</linearGradient>
</defs>
</svg>
