<svg xmlns="http://www.w3.org/2000/svg" width="18" height="18" viewBox="0 0 18 18" fill="none">
  <path d="M10.9499 6H15.75C16.5785 6 17.25 6.67158 17.25 7.49998V9.07828C17.25 9.27418 17.2116 9.46821 17.1371 9.64941L14.8162 15.2856C14.7005 15.5666 14.4266 15.75 14.1227 15.75H1.5C1.08579 15.75 0.75 15.4142 0.75 15V7.49998C0.75 7.08579 1.08579 6.75 1.5 6.75H4.11138C4.35508 6.75 4.58357 6.6316 4.72411 6.43251L8.81415 0.638272C8.92103 0.48687 9.12248 0.436239 9.28823 0.519118L10.6488 1.19939C11.4375 1.59376 11.8448 2.48445 11.6273 3.33902L10.9499 6ZM5.25 7.94061V14.25H13.6205L15.75 9.07828V7.49998H10.9499C9.97132 7.49998 9.25485 6.57822 9.4962 5.62994L10.1737 2.96896C10.2172 2.79804 10.1357 2.6199 9.97792 2.54103L9.4821 2.29311L5.94956 7.29754C5.76214 7.56306 5.52256 7.78071 5.25 7.94061ZM3.75 8.24998H2.25V14.25H3.75V8.24998Z" fill="#777777"/>
</svg>