<svg width="16" height="16" viewBox="0 0 16 16" fill="currentColor" xmlns="http://www.w3.org/2000/svg">
<path d="M8.33597 4.19182C8.68797 3.75449 9.06131 3.35982 9.45597 3.00782C9.79731 2.71982 10.184 2.45849 10.616 2.22382C11.048 1.98916 11.4986 1.88782 11.968 1.91982C12.6293 1.97316 13.1813 2.13049 13.624 2.39182C14.0666 2.65316 14.4186 2.98382 14.68 3.38382C14.9413 3.78382 15.12 4.23716 15.216 4.74382C15.312 5.25049 15.344 5.77049 15.312 6.30382C15.28 6.83716 15.1866 7.34649 15.032 7.83182C14.8773 8.31716 14.6853 8.77049 14.456 9.19182C14.2266 9.61316 13.9733 10.0025 13.696 10.3598C13.4186 10.7172 13.1413 11.0398 12.864 11.3278C12.4373 11.7652 11.992 12.1732 11.528 12.5518C11.064 12.9305 10.6213 13.2558 10.2 13.5278C9.77864 13.7998 9.39464 14.0158 9.04797 14.1758C8.70131 14.3358 8.43197 14.4158 8.23997 14.4158C8.02664 14.4265 7.75464 14.3518 7.42397 14.1918C7.09331 14.0318 6.73064 13.8158 6.33597 13.5438C5.94131 13.2718 5.52531 12.9492 5.08797 12.5758C4.65064 12.2025 4.21864 11.8078 3.79197 11.3918C3.51464 11.1252 3.21597 10.8158 2.89597 10.4638C2.57597 10.1118 2.27464 9.72516 1.99197 9.30382C1.70931 8.88249 1.46664 8.42649 1.26397 7.93582C1.06131 7.44516 0.949306 6.92249 0.927973 6.36782C0.906639 5.81316 0.965306 5.29316 1.10397 4.80782C1.24264 4.32249 1.45064 3.88782 1.72797 3.50382C2.00531 3.11982 2.34664 2.79716 2.75197 2.53582C3.15731 2.27449 3.61597 2.09049 4.12797 1.98382C4.38397 1.93049 4.63997 1.92249 4.89597 1.95982C5.15197 1.99716 5.40264 2.06116 5.64797 2.15182C5.89331 2.24249 6.12797 2.35716 6.35197 2.49582C6.57597 2.63449 6.78931 2.77849 6.99197 2.92782C7.46131 3.27982 7.90931 3.70116 8.33597 4.19182Z" fill="#FF3E84"/>
</svg>
