<svg width="16" height="16" viewBox="0 0 16 16" fill="currentColor" xmlns="http://www.w3.org/2000/svg">
<path d="M7.984 10.672C6.976 10.672 6.112 11.52 6.112 12.544C6.112 13.584 6.976 14.416 7.984 14.416C9.024 14.416 9.856 13.584 9.856 12.544C9.856 11.52 9.024 10.672 7.984 10.672ZM5.328 8.016C5.328 6.976 4.48 6.144 3.456 6.144C2.416 6.144 1.584 6.976 1.584 8.016C1.584 9.024 2.416 9.888 3.456 9.888C4.48 9.888 5.328 9.024 5.328 8.016ZM7.984 6.944C7.392 6.944 6.928 7.424 6.928 8.016C6.928 8.608 7.392 9.072 7.984 9.072C8.576 9.072 9.056 8.608 9.056 8.016C9.056 7.424 8.576 6.944 7.984 6.944ZM14.3835 8.016C14.3835 6.976 13.5515 6.144 12.5435 6.144C11.5035 6.144 10.6715 6.976 10.6715 8.016C10.6715 9.024 11.5035 9.888 12.5435 9.888C13.5515 9.888 14.3835 9.024 14.3835 8.016ZM9.85547 3.456C9.85547 2.448 9.02347 1.616 7.98347 1.616C6.97547 1.616 6.11147 2.448 6.11147 3.456C6.11147 4.496 6.97547 5.328 7.98347 5.328C9.02347 5.328 9.85547 4.496 9.85547 3.456ZM13.0555 14.192C11.6795 15.344 9.90347 16 7.98347 16C3.584 16 0 12.416 0 8.016C0 3.584 3.584 0 7.984 0C12.4155 0 15.9995 3.584 15.9995 8.016C15.9995 9.984 15.2955 11.76 14.1275 13.152C13.9835 14.176 14.2715 14.656 15.5675 14.96L15.2155 16C13.9355 15.616 13.2475 15.008 13.0555 14.192Z" fill="#FF3E84"/>
</svg>
