<svg width="10" height="10" viewBox="0 0 10 10" fill="none" xmlns="http://www.w3.org/2000/svg">
<path d="M5.11063 8.44594L5.11063 1.44273C5.11063 1.20124 5.31187 1 5.55336 1C5.79485 1 5.99609 1.20124 5.99609 1.44273L5.99609 8.44594C5.99609 8.68743 5.79485 8.88867 5.55336 8.88867C5.31187 8.88867 5.11063 8.68743 5.11063 8.44594Z" fill="#0C0C0C"/>
<path d="M8.09001 6.53811L5.86831 8.75982C5.69926 8.92886 5.41753 8.92886 5.24043 8.75982C5.07139 8.59078 5.07139 8.30904 5.24043 8.13194L7.46214 5.91024C7.63118 5.74119 7.91292 5.74119 8.09001 5.91024C8.25906 6.08733 8.25906 6.36907 8.09001 6.53811ZM3.97664 1.75661L1.75493 3.97832C1.58589 4.14736 1.30415 4.14736 1.12705 3.97832C0.958012 3.80927 0.958012 3.52754 1.12705 3.35044L3.34876 1.12874C3.51781 0.959692 3.79954 0.959692 3.97664 1.12874C4.15373 1.29778 4.15373 1.57952 3.97664 1.75661Z" fill="#0C0C0C"/>
<path d="M3.22001 8.44594L3.22001 1.44273C3.22001 1.20124 3.42125 1 3.66274 1C3.90423 1 4.10547 1.20124 4.10547 1.44273L4.10547 8.44594C4.10547 8.68743 3.90423 8.88867 3.66274 8.88867C3.42125 8.88867 3.22001 8.68743 3.22001 8.44594Z" fill="#0C0C0C"/>
</svg>
