<svg width="16" height="16" viewBox="0 0 16 16" fill="none" xmlns="http://www.w3.org/2000/svg">
<path d="M13.8267 6.61099H10.1094C11.5498 1.29123 9.11699 1.01953 9.11699 1.01953C8.08585 1.01953 8.29961 1.83488 8.22163 1.97081C8.22163 4.5724 5.45835 6.61099 5.45835 6.61099V13.9887C5.45835 14.7169 6.4508 14.9792 6.84012 14.9792H12.4253C12.9509 14.9792 13.379 13.6007 13.379 13.6007C14.7608 8.90217 14.7608 7.50417 14.7608 7.50417C14.7608 6.53342 13.8267 6.61099 13.8267 6.61099ZM3.93289 6.61343H1.70701C1.24732 6.61343 1.24023 7.06494 1.24023 7.06494L1.69992 14.5056C1.69992 14.9792 2.17432 14.9792 2.17432 14.9792H4.10084C4.50218 14.9792 4.49863 14.6659 4.49863 14.6659V7.17768C4.49863 6.60621 3.93289 6.61343 3.93289 6.61343Z" fill="#999999"/>
</svg>
