<svg width="16" height="16" viewBox="0 0 16 16" fill="none" xmlns="http://www.w3.org/2000/svg">
<path d="M14.9537 8.00299C14.9554 7.7067 14.8365 7.48848 14.8298 7.48C13.8873 5.6809 12.1316 4.52625 12.0585 4.47954C10.8003 3.65175 9.43335 3.23063 8.00189 3.22809V3.21875C6.56704 3.22129 5.20179 3.64157 3.94186 4.47107C3.87053 4.51776 2.11137 5.67243 1.17234 7.47068C1.16555 7.48002 1.04499 7.69738 1.04669 7.99367H1.04499C1.0416 8.29253 1.16385 8.51242 1.17065 8.52093C2.11137 10.32 3.86885 11.4747 3.94016 11.5214C5.20013 12.3505 6.56536 12.7699 7.9985 12.7733V12.7818C9.43337 12.7801 10.8003 12.3589 12.0602 11.5299C12.1333 11.4832 13.889 10.3285 14.8315 8.53025C14.8382 8.52091 14.9588 8.30186 14.9554 8.00299H14.9537ZM8.0002 10.6087C6.56024 10.6087 5.39196 9.44125 5.39196 8.00045C5.39196 6.55967 6.56023 5.39225 8.0002 5.39225C9.44181 5.39225 10.6084 6.55967 10.6084 8.00045C10.6084 9.44125 9.44181 10.6087 8.0002 10.6087Z" fill="#999999"/>
</svg>
