<svg width="18" height="18" xmlns="http://www.w3.org/2000/svg">

 <g>
  <title>background</title>
  <rect fill="none" id="canvas_background" height="4.142857" width="4.142857" y="-1" x="-1"/>
 </g>
 <g>
  <title>Layer 1</title>
  <path transform="rotate(-180 9,8.651899337768555) " id="svg_1" fill="#e35758" d="m10.9499,6.537153l4.8001,0c0.8285,0 1.5,0.67158 1.5,1.49998l0,1.5783c0,0.1959 -0.0384,0.38993 -0.1129,0.57113l-2.3209,5.63619c-0.1157,0.281 -0.3896,0.4644 -0.6935,0.4644l-12.6227,0c-0.41421,0 -0.75,-0.3358 -0.75,-0.75l0,-7.50002c0,-0.41419 0.33579,-0.74998 0.75,-0.74998l2.61138,0c0.2437,0 0.47219,-0.1184 0.61273,-0.31749l4.09004,-5.794238c0.10688,-0.151402 0.30833,-0.202033 0.47408,-0.119154l1.36057,0.680272c0.7887,0.39437 1.196,1.28506 0.9785,2.13963l-0.6774,2.66098zm-5.6999,1.94061l0,6.30939l8.3705,0l2.1295,-5.17172l0,-1.5783l-4.8001,0c-0.97858,0 -1.69505,-0.92176 -1.4537,-1.87004l0.6775,-2.66098c0.0435,-0.17092 -0.038,-0.34906 -0.19578,-0.42793l-0.49582,-0.24792l-3.53254,5.00443c-0.18742,0.26552 -0.427,0.48317 -0.69956,0.64307zm-1.5,0.30937l-1.5,0l0,6.00002l1.5,0l0,-6.00002z"/>
 </g>
</svg>