<svg width="10" height="12" viewBox="0 0 10 12" fill="currentColor"
    xmlns="http://www.w3.org/2000/svg">
    <path d="M7.48399 8.24745C7.29812 8.21366 7.12914 8.33195 7.09534 8.51782C7.06154 8.70369 7.17983 8.87268 7.36571 8.90648C8.32888 9.09236 8.90341 9.39652 8.90341 9.5486C8.90341 9.5824 8.85271 9.63309 8.71753 9.73447C8.53165 9.85275 8.26129 9.97105 7.90643 10.0724C7.14602 10.2921 6.11525 10.4104 5.01689 10.4104C3.91851 10.4104 2.87085 10.2921 2.12734 10.0724C1.77249 9.97105 1.50213 9.85276 1.31624 9.73447C1.16416 9.63309 1.11347 9.5824 1.11347 9.5486C1.11347 9.41342 1.6373 9.12615 2.516 8.94028C2.70187 8.90648 2.82016 8.7206 2.76946 8.53473C2.75257 8.34885 2.56669 8.23056 2.38081 8.28126C1.18105 8.53473 0.437551 8.94028 0.437551 9.5486C0.437551 10.4949 2.4653 11.0694 4.99999 11.0694C7.53468 11.0694 9.56243 10.4949 9.56243 9.5486C9.56243 8.92338 8.76824 8.50093 7.48399 8.24745ZM2.44183 5.64405L4.72677 9.29507C4.77591 9.39532 4.88009 9.4641 4.99999 9.4641C5.11987 9.4641 5.22308 9.39532 5.2732 9.29507L7.55814 5.64405H7.55225C7.86575 5.16446 8.04854 4.59348 8.04854 3.97825C8.04854 2.29574 6.68347 0.930664 4.99998 0.930664C3.31648 0.930664 1.95141 2.29574 1.95141 3.97825C1.95141 4.59346 2.13322 5.16446 2.44673 5.64405H2.44181H2.44183ZM5 2.58861C5.76755 2.58861 6.38964 3.2107 6.38964 3.97826C6.38964 4.74581 5.76755 5.36789 5 5.36789C4.23244 5.36789 3.61035 4.74579 3.61035 3.97825C3.61035 3.2107 4.23244 2.58861 5 2.58861Z" />
</svg>
