<svg width="16" height="16" viewBox="0 0 16 16" fill="currentColor" xmlns="http://www.w3.org/2000/svg">
<path d="M13.4466 7.64708C13.4452 6.91176 12.9816 6.27145 12.3139 6.05911C12.0546 5.9763 11.7855 5.96395 11.5152 5.9763C11.3952 5.98176 11.3275 5.98739 11.3414 5.8052C11.3746 5.35958 11.38 4.90848 11.3606 4.46005C11.2972 2.9838 10.2652 1.73926 8.81096 1.35989C7.43127 0.999889 5.95361 1.60551 5.16033 2.82645C4.52565 3.80051 4.60986 4.87239 4.6608 5.97614C4.47455 5.97614 4.30627 5.97208 4.13924 5.97614C3.26033 5.99958 2.55955 6.69489 2.55533 7.57239C2.54705 9.41426 2.54565 11.256 2.55533 13.0979C2.5608 13.9933 3.25752 14.726 4.14752 14.7313C6.73018 14.7479 9.31439 14.7465 11.8971 14.7313C12.7566 14.7258 13.4424 14.0015 13.4464 13.1393C13.4535 11.3088 13.4521 9.47786 13.4466 7.64708ZM8.84408 10.4093C8.70893 10.5113 8.66752 10.608 8.67158 10.7666C8.68127 11.1694 8.67846 11.5738 8.67439 11.9766C8.66752 12.4416 8.40393 12.7216 7.98736 12.7147C7.5858 12.7093 7.33471 12.4333 7.32783 11.9835C7.32377 11.7475 7.32096 11.513 7.32783 11.2771C7.34033 10.8672 7.32643 10.521 6.95674 10.1899C6.55799 9.8313 6.55111 9.2863 6.78565 8.78551C7.02846 8.26942 7.45611 8.02942 7.91689 7.9963C8.57502 8.00317 9.10065 8.39223 9.28143 8.93317C9.46065 9.47239 9.29799 10.0657 8.84408 10.4093ZM9.7794 5.98051C9.1958 5.96942 8.61221 5.9763 8.02861 5.9763C7.43393 5.9763 6.83799 5.96395 6.2433 5.98176C6.01143 5.9888 5.96596 5.90864 5.97424 5.69895C5.9908 5.3402 5.97565 4.9802 5.97971 4.62145C5.99221 3.49833 6.87643 2.6113 7.98721 2.60583C9.09924 2.60036 9.99736 3.4777 10.0208 4.60083C10.0291 4.98301 10.0097 5.3652 10.0263 5.74598C10.0347 5.94723 9.96018 5.98317 9.7794 5.98051Z" fill="#FF3E84"/>
</svg>
