<svg width="11" height="11" viewBox="0 0 11 11" fill="none" xmlns="http://www.w3.org/2000/svg">
<g clip-path="url(#clip0_0_1274)">
<path d="M9.81338 5.92378H1.25587C1.00194 5.92378 0.794189 5.71603 0.794189 5.4621C0.794189 5.20818 1.00194 5.00043 1.25587 5.00043H9.81338C10.0673 5.00043 10.2751 5.20818 10.2751 5.4621C10.2751 5.71603 10.0673 5.92378 9.81338 5.92378Z" fill="white"/>
<path d="M5.07239 9.74026V1.18275C5.07239 0.928824 5.28014 0.721069 5.53406 0.721069C5.78799 0.721069 5.99574 0.928824 5.99574 1.18275V9.74026C5.99574 9.99418 5.78799 10.2019 5.53406 10.2019C5.28014 10.2019 5.07239 9.99418 5.07239 9.74026Z" fill="white"/>
</g>
<defs>
<clipPath id="clip0_0_1274">
<rect width="11" height="11" fill="white"/>
</clipPath>
</defs>
</svg>
