<svg width="12" height="12" viewBox="0 0 12 12" fill="currentColor" xmlns="http://www.w3.org/2000/svg">
<path d="M4.61538 0H0.923077C0.415385 0 0 0.414886 0 0.921969V4.60984C0 5.11693 0.415385 5.53181 0.923077 5.53181H4.61538C5.12308 5.53181 5.53846 5.11693 5.53846 4.60984V0.921969C5.53846 0.414886 5.12308 0 4.61538 0ZM3.69231 3.45738C3.69231 3.58415 3.58846 3.68788 3.46154 3.68788H2.07692C1.95 3.68788 1.84615 3.58415 1.84615 3.45738V2.07443C1.84615 1.94766 1.95 1.84394 2.07692 1.84394H3.46154C3.58846 1.84394 3.69231 1.94766 3.69231 2.07443V3.45738ZM11.0769 0H7.38462C6.87692 0 6.46154 0.414886 6.46154 0.921969V4.60984C6.46154 5.11693 6.87692 5.53181 7.38462 5.53181H11.0769C11.5846 5.53181 12 5.11693 12 4.60984V0.921969C12 0.414886 11.5846 0 11.0769 0ZM10.1538 3.45738C10.1538 3.58415 10.05 3.68788 9.92308 3.68788H8.53846C8.41154 3.68788 8.30769 3.58415 8.30769 3.45738V2.07443C8.30769 1.94766 8.41154 1.84394 8.53846 1.84394H9.92308C10.05 1.84394 10.1538 1.94766 10.1538 2.07443V3.45738ZM4.61538 6.45378H0.923077C0.415385 6.45378 0 6.86867 0 7.37575V11.0636C0 11.5707 0.415385 11.9856 0.923077 11.9856H4.61538C5.12308 11.9856 5.53846 11.5707 5.53846 11.0636V7.37575C5.53846 6.86867 5.12308 6.45378 4.61538 6.45378ZM3.69231 9.91116C3.69231 10.0379 3.58846 10.1417 3.46154 10.1417H2.07692C1.95 10.1417 1.84615 10.0379 1.84615 9.91116V8.52821C1.84615 8.40144 1.95 8.29772 2.07692 8.29772H3.46154C3.58846 8.29772 3.69231 8.40144 3.69231 8.52821V9.91116ZM11.5385 8.7443H9.69231V9.45018C9.69231 9.57748 9.58899 9.68067 9.46154 9.68067H8.75481V11.539C8.75481 11.7926 8.9625 12 9.21635 12H11.5385C11.7923 12 12 11.7926 12 11.539V9.20528C12 8.95174 11.7923 8.7443 11.5385 8.7443ZM8.76923 6.88595C8.76923 6.63241 8.56154 6.42497 8.30769 6.42497H6.90865C6.65481 6.42497 6.44712 6.63241 6.44712 6.88595V8.29772C6.44712 8.55126 6.65481 8.7587 6.90865 8.7587H8.30769C8.56154 8.7587 8.76923 8.55126 8.76923 8.29772V6.88595ZM7.61538 10.6026H6.69231C6.56485 10.6026 6.46154 10.7058 6.46154 10.8331V11.7551C6.46154 11.8824 6.56485 11.9856 6.69231 11.9856H7.61538C7.74284 11.9856 7.84615 11.8824 7.84615 11.7551V10.8331C7.84615 10.7058 7.74284 10.6026 7.61538 10.6026ZM11.7692 6.45378H10.8462C10.7187 6.45378 10.6154 6.55697 10.6154 6.68427V7.60624C10.6154 7.73355 10.7187 7.83673 10.8462 7.83673H11.7692C11.8967 7.83673 12 7.73355 12 7.60624V6.68427C12 6.55697 11.8967 6.45378 11.7692 6.45378Z" fill="white"/>
</svg>
