<svg width="18" height="18" viewBox="0 0 18 18" fill="none" xmlns="http://www.w3.org/2000/svg">
<path d="M16.8754 7.31306V3.37556L15.5912 4.65975C14.8742 3.57345 13.899 2.68194 12.7529 2.06506C11.6068 1.44817 10.3256 1.12518 9.024 1.125C4.67475 1.125 1.14844 4.65075 1.14844 9.00056C1.14844 13.3504 4.67475 16.8761 9.024 16.8761C10.5914 16.8764 12.1232 16.4091 13.4235 15.5339C14.7237 14.6587 15.7333 13.4155 16.323 11.9633C16.3904 11.7974 16.3891 11.6116 16.3195 11.4468C16.2498 11.2819 16.1176 11.1514 15.9517 11.0841C15.8696 11.0507 15.7818 11.0339 15.6932 11.0345C15.6045 11.0351 15.5169 11.0531 15.4353 11.0876C15.2704 11.1572 15.1399 11.2895 15.0726 11.4553C14.5837 12.6586 13.747 13.6887 12.6696 14.4138C11.5921 15.139 10.3228 15.5263 9.024 15.5261C5.42006 15.5261 2.49844 12.6045 2.49844 9.00056C2.49844 5.39663 5.42006 2.475 9.024 2.475C11.3522 2.475 13.4526 3.70688 14.6141 5.63625L12.9379 7.31306H16.8754Z" fill="black"/>
</svg>
