<svg width="21" height="21" viewBox="0 0 21 21" fill="none" xmlns="http://www.w3.org/2000/svg">
<path d="M5.09648 19.2365C5.00817 19.2365 4.92026 19.2091 4.84605 19.1552C4.71489 19.0599 4.64916 18.8984 4.67657 18.7386L5.66976 12.9479L1.46262 8.84692C1.34653 8.73372 1.30475 8.56447 1.35484 8.41027C1.40497 8.25607 1.53825 8.14367 1.69873 8.12033L7.51286 7.27551L10.113 2.00696C10.1848 1.86157 10.3329 1.76953 10.495 1.76953C10.6572 1.76953 10.8053 1.8616 10.877 2.00696L13.4772 7.27551L19.2914 8.12033C19.4518 8.14367 19.5851 8.25607 19.6352 8.41027C19.6853 8.56447 19.6435 8.73374 19.5274 8.84692L15.3202 12.9479L16.3134 18.7386C16.3408 18.8984 16.2751 19.0599 16.144 19.1552C16.0127 19.2505 15.8388 19.263 15.6954 19.1876L10.495 16.4536L5.29467 19.1876C5.23234 19.2204 5.1643 19.2365 5.09648 19.2365ZM2.67533 8.8393L6.42485 12.4941C6.52523 12.592 6.57104 12.733 6.54737 12.8712L5.66219 18.0319L10.2968 15.5953C10.4209 15.5301 10.5692 15.5301 10.6933 15.5953L15.3279 18.0319L14.4427 12.8712C14.419 12.733 14.4648 12.592 14.5652 12.4941L18.3147 8.8393L13.1331 8.08637C12.9943 8.06621 12.8744 7.97905 12.8123 7.85335L10.495 3.15797L8.17771 7.85335C8.11566 7.97905 7.99572 8.06621 7.85699 8.08637L2.67533 8.8393Z" fill="#0C0C0C"/>
</svg>
