<svg width="21" height="21" viewBox="0 0 21 21" fill="none" xmlns="http://www.w3.org/2000/svg">
<path d="M14.816 3.96947C11.792 0.945467 6.88847 0.913967 3.90647 3.90647C0.913967 6.89897 0.945467 11.792 3.96947 14.816C6.85697 17.7035 11.456 17.861 14.4695 15.2675L18.3545 19.1525C18.575 19.373 18.9425 19.3835 19.163 19.1525C19.3835 18.932 19.3835 18.5645 19.163 18.344L15.278 14.459C17.861 11.456 17.7035 6.85697 14.816 3.96947ZM14.0705 14.0705C11.519 16.622 7.35047 16.5905 4.77797 14.018C2.19497 11.435 2.17397 7.26647 4.72547 4.72547C7.27697 2.18447 11.4455 2.20547 14.018 4.77797C16.5905 7.35047 16.622 11.5295 14.0705 14.0705Z" fill="#0C0C0C"/>
</svg>
