<svg width="18" height="18" viewBox="0 0 18 18" fill="currentColor" xmlns="http://www.w3.org/2000/svg">
<path d="M9.06742 0.750519C12.0057 0.750519 14.3846 3.15412 14.3846 6.11568C14.3846 6.5544 14.3036 7.02537 14.1423 7.53009C14.8848 7.64633 15.5268 8.10305 15.8162 8.76451L17.8914 14.6066C18.2821 15.7106 17.5854 16.8543 16.411 17.1677C16.3097 17.1947 16.102 17.2225 15.7885 17.2495H2.2106C1.01142 17.2495 0.000488281 16.3705 0.000488281 15.2306C0.000488281 15.0716 0.0207369 14.9134 0.0612343 14.7589L2.1311 8.89575C2.40409 8.12405 3.14204 7.59834 3.98724 7.51284C3.82975 7.01487 3.75025 6.54915 3.75025 6.11568C3.75025 3.15412 6.1291 0.750519 9.06742 0.750519ZM9.61263 14.0149C9.48717 14.1476 9.31763 14.2299 9.13579 14.2465C8.95395 14.2631 8.77231 14.2127 8.62494 14.1049L8.5372 14.0299L8.5222 14.0149C6.71631 12.1026 5.4189 10.4392 4.63745 9H4.23472C3.93174 9 3.67826 9.14249 3.57476 9.33223C2.1911 13.2372 1.50039 15.2021 1.50039 15.2306C1.50039 15.4713 1.75313 15.7106 2.11835 15.7451C11.3383 15.7413 15.9737 15.7323 16.024 15.7188C16.3615 15.6288 16.5317 15.3888 16.4935 15.1669L14.4543 9.39672C14.3846 9.19874 14.1543 9.036 13.8641 9.00525L13.4974 9C12.7159 10.4392 11.4185 12.1026 9.61263 14.0149ZM9.06742 2.25042C6.96005 2.25042 5.25016 3.97907 5.25016 6.11568C5.25016 7.46784 6.51308 9.59696 9.06742 12.3973C11.6218 9.59696 12.8847 7.46784 12.8847 6.11568C12.8847 3.97907 11.174 2.25042 9.06742 2.25042ZM8.99992 4.50028C9.39772 4.50028 9.77923 4.65831 10.0605 4.93959C10.3418 5.22088 10.4998 5.60239 10.4998 6.00019C10.4998 6.39799 10.3418 6.77949 10.0605 7.06078C9.77923 7.34207 9.39772 7.50009 8.99992 7.50009C8.60212 7.50009 8.22061 7.34207 7.93933 7.06078C7.65804 6.77949 7.50002 6.39799 7.50002 6.00019C7.50002 5.60239 7.65804 5.22088 7.93933 4.93959C8.22061 4.65831 8.60212 4.50028 8.99992 4.50028Z" />
</svg>
