<svg width="16" height="16" viewBox="0 0 16 16" fill="currentColor" xmlns="http://www.w3.org/2000/svg">
<path d="M9.51454 10.496C8.97968 10.496 8.56309 10.4557 8.44483 10.4422C8.17068 10.41 7.97179 10.1654 8.00404 9.89123C8.03361 9.61709 8.27819 9.42088 8.55502 9.45045C9.79944 9.58752 11.7077 9.46926 12.041 8.77583C12.1593 8.52856 12.4576 8.42105 12.7076 8.542C12.9575 8.66026 13.0623 8.96128 12.9414 9.20855C12.4119 10.3025 10.6783 10.496 9.51454 10.496Z" fill="#FF3E84"/>
<path d="M14.0003 9.99852C13.7235 9.99852 13.5004 9.77544 13.5004 9.4986V7.77577L12.8311 7.53657C12.6323 7.46669 12.4979 7.27586 12.4979 7.06622C12.4979 4.58545 10.4794 2.56697 7.99863 2.56697C5.51786 2.56697 3.49938 4.58545 3.49938 7.06622C3.49938 7.22748 3.42144 7.37799 3.28974 7.47206L2.99947 7.67902V9.49592C2.99947 9.77275 2.77638 9.99583 2.49955 9.99583C2.22271 9.99583 1.99963 9.77275 1.99963 9.49592V7.421C1.99963 7.25973 2.07758 7.10922 2.20928 7.01515L2.50493 6.80282C2.642 3.89202 5.05288 1.56445 7.99863 1.56445C10.9121 1.56714 13.3042 3.84364 13.4896 6.71144L14.1696 6.95333C14.3685 7.02321 14.5029 7.21404 14.5029 7.42368V9.4986C14.5002 9.77544 14.2771 9.99852 14.0003 9.99852Z" fill="#FF3E84"/>
<path d="M9.99834 12.2457V12.0952C10.4364 11.7538 10.7858 11.4233 10.9928 10.9583C10.5386 11.0309 10.0306 11.004 9.62206 11.004C9.12214 11.004 8.69479 11.0174 8.43409 10.9878C7.88579 10.926 7.4907 10.3831 7.54983 9.83482C7.61164 9.28652 8.10887 8.88605 8.65448 8.95056C9.7672 9.06882 10.9955 8.93981 11.4873 8.73285C11.5088 8.27594 11.5035 7.79484 11.5035 7.42931C11.5035 5.28988 10.2026 4.02128 8.11693 3.97559C8.10618 3.97559 7.82397 3.97559 7.81322 3.97559C5.72755 4.01859 4.47776 5.30332 4.47776 7.44543C4.47776 8.76779 4.49926 10.926 5.99901 12.0979V12.2484C3.99935 12.5602 2.46735 13.3826 2.46735 14.4684C2.46735 14.7453 2.69849 15.0033 2.97533 15.0033H12.7882C13.065 15.0033 13.4117 14.7453 13.4117 14.4684C13.4144 13.3799 12.0007 12.5602 9.99834 12.2457Z" fill="#FF3E84"/>
</svg>
