<svg width="16" height="16" viewBox="0 0 16 16" fill="currentColor" xmlns="http://www.w3.org/2000/svg">
<g clip-path="url(#clip0_3370_2347)">
<path d="M8 0.25C3.71875 0.25 0.25 3.71875 0.25 8C0.25 12.2812 3.71875 15.75 8 15.75C12.2812 15.75 15.75 12.2812 15.75 8C15.75 3.71875 12.2812 0.25 8 0.25ZM11.8062 5.55937L10.5344 11.5531C10.4406 11.9781 10.1875 12.0813 9.83438 11.8813L7.89687 10.4531L6.9625 11.3531C6.85938 11.4562 6.77187 11.5437 6.57188 11.5437L6.70937 9.57187L10.3 6.32812C10.4563 6.19063 10.2656 6.1125 10.0594 6.25L5.62187 9.04375L3.70937 8.44687C3.29375 8.31562 3.28437 8.03125 3.79688 7.83125L11.2688 4.95C11.6156 4.825 11.9187 5.03437 11.8062 5.55937Z" fill="#FF3E84"/>
</g>
<defs>
<clipPath id="clip0_3370_2347">
<rect width="16" height="16" fill="white"/>
</clipPath>
</defs>
</svg>
