<svg width="22" height="22" viewBox="0 0 22 22" fill="currentColor" xmlns="http://www.w3.org/2000/svg">
<path d="M10.5488 1.93555C15.6003 1.93555 19.6953 6.03057 19.6953 11.082C19.6953 16.1335 15.6003 20.2285 10.5488 20.2285C5.49736 20.2285 1.40234 16.1335 1.40234 11.082C1.40234 6.03057 5.49736 1.93555 10.5488 1.93555ZM10.5488 3.16136C6.17437 3.16136 2.62816 6.70757 2.62816 11.082C2.62816 15.4565 6.17437 19.0027 10.5488 19.0027C14.9233 19.0027 18.4695 15.4565 18.4695 11.082C18.4695 6.70757 14.9233 3.16136 10.5488 3.16136ZM10.5488 14.1466C11.0175 14.1466 11.3975 14.5265 11.3975 14.9952C11.3975 15.4639 11.0175 15.8439 10.5488 15.8439C10.0801 15.8439 9.70019 15.4639 9.70019 14.9952C9.70019 14.5265 10.0801 14.1466 10.5488 14.1466ZM10.5488 5.99017C10.8825 5.99017 11.1539 6.25679 11.1616 6.58861L11.1617 6.60308V12.3078C11.1617 12.6463 10.8873 12.9208 10.5488 12.9208C10.2152 12.9208 9.94377 12.6541 9.9361 12.3223L9.93591 12.3078V6.60308C9.93591 6.26458 10.2103 5.99017 10.5488 5.99017Z" fill="#FF0000"/>
</svg>
