<svg width="22" height="22" viewBox="0 0 22 22" fill="none" xmlns="http://www.w3.org/2000/svg">
<path d="M11 17C7.13 17 4.07 15 2 11C4.07 7 7.13 5 11 5C14.87 5 17.93 7 20 11C17.93 15 14.87 17 11 17ZM11.18 7C8.48 7 5.78 8.3 4.25 11C5.78 13.7 8.48 15 11.18 15C13.88 15 16.22 13.7 17.75 11C16.22 8.3 13.88 7 11.18 7ZM11 14C9.47 14 8.3 12.7 8.3 11C8.3 9.3 9.47 8 11 8C12.53 8 13.7 9.3 13.7 11C13.7 12.7 12.53 14 11 14ZM11 12C11.54 12 11.9 11.6 11.9 11C11.9 10.4 11.54 10 11 10C10.46 10 10.1 10.4 10.1 11C10.1 11.6 10.46 12 11 12Z" fill="#999999"/>
</svg>
