<svg width="22" height="22" viewBox="0 0 22 22" fill="none" xmlns="http://www.w3.org/2000/svg">
<path d="M9.11 16.3143L10.73 14.7714H10.91C13.97 14.7714 16.22 13.6571 17.93 11.3429C17.39 10.6571 16.76 10.0571 16.13 9.54286L17.48 8.42857C18.47 9.2 19.28 10.2286 20 11.3429C17.93 14.7714 14.87 16.4 11 16.4C10.37 16.4857 9.74 16.4 9.11 16.3143ZM4.07 13.9143C3.35 13.2286 2.63 12.3714 2 11.3429C4.07 7.91429 7.13 6.28571 11 6.28571H11.99L10.19 8C7.49 8.17143 5.42 9.28571 3.89 11.3429C4.25 11.8571 4.7 12.3714 5.15 12.7143L4.07 13.9143ZM16.13 5L17.39 6.2L6.05 17L4.79 15.8L16.13 5Z" fill="#999999"/>
</svg>
