<svg width="17" height="16" viewBox="0 0 17 16" fill="none" xmlns="http://www.w3.org/2000/svg">
<path d="M13.5 2H3.5C2.94772 2 2.5 2.44772 2.5 3V13C2.5 13.5523 2.94772 14 3.5 14H13.5C14.0523 14 14.5 13.5523 14.5 13V3C14.5 2.44772 14.0523 2 13.5 2Z" stroke="white" stroke-width="1.5" stroke-linejoin="round"/>
<path d="M2.5 9.33333L6.06437 6.066C6.31297 5.8381 6.69263 5.83177 6.9487 6.05127L11.1667 9.66667" stroke="white" stroke-width="1.5" stroke-linecap="round" stroke-linejoin="round"/>
<path d="M9.83301 8L11.4242 6.40883C11.6587 6.17427 12.0301 6.14787 12.2956 6.34693L14.4997 8" stroke="white" stroke-width="1.5" stroke-linecap="round" stroke-linejoin="round"/>
<path d="M2.5 6.66667V10" stroke="white" stroke-width="1.5" stroke-linecap="round" stroke-linejoin="round"/>
<path d="M14.5 6.66667V10" stroke="white" stroke-width="1.5" stroke-linecap="round" stroke-linejoin="round"/>
</svg>
