<svg width="112" height="67" viewBox="0 0 112 67" fill="none" xmlns="http://www.w3.org/2000/svg">
<circle cx="7" cy="8.5" r="7" fill="url(#paint0_linear_622_3331)"/>
<path d="M5 8.5L7 10.5L10 7.5" stroke="url(#paint1_linear_622_3331)" stroke-width="1.5" stroke-linecap="round" stroke-linejoin="round"/>
<path d="M20.86 4.576H22.252V3.256H23.08V4.576H25.012V3.256H25.852V4.576H27.292V5.344H25.852V6.856H27.544V7.672H20.584V6.856H22.252V5.344H20.86V4.576ZM23.08 6.856H25.012V5.344H23.08V6.856ZM26.776 8.584V14.128H25.936V13.564H22.228V14.116H21.388V8.584H26.776ZM22.228 12.772H25.936V11.464H22.228V12.772ZM22.228 10.696H25.936V9.364H22.228V10.696ZM19.996 3.364L20.716 3.808C20.236 4.576 19.744 5.212 19.252 5.716C19.336 5.884 19.408 6.052 19.48 6.22C19.828 7.18 20.02 8.548 20.044 10.324C20.044 12.22 19.804 13.36 19.336 13.756C19.06 13.948 18.664 14.056 18.16 14.056C17.812 14.056 17.524 14.044 17.308 14.044L17.068 13.24C17.38 13.276 17.68 13.3 17.968 13.3C18.376 13.3 18.64 13.228 18.772 13.084C19.06 12.772 19.216 11.836 19.216 10.276C19.204 9.772 19.18 9.316 19.156 8.896C18.556 9.76 17.86 10.492 17.056 11.08L16.564 10.36C17.62 9.64 18.436 8.764 19.024 7.744C18.952 7.3 18.856 6.916 18.736 6.58C18.688 6.472 18.652 6.376 18.616 6.304C18.16 6.676 17.644 7.048 17.056 7.408L16.588 6.664C17.188 6.364 17.728 5.992 18.22 5.536C17.872 4.972 17.44 4.456 16.924 4L17.596 3.472C18.076 3.952 18.484 4.444 18.82 4.948C19.252 4.492 19.636 3.964 19.996 3.364ZM29.32 4.108H33.664C33.664 3.892 33.676 3.604 33.676 3.232H34.552C34.552 3.64 34.54 3.94 34.516 4.108H38.728V4.924H34.276C34.18 5.116 34.084 5.284 33.976 5.44C35.632 5.824 37.156 6.268 38.548 6.784L38.08 7.504C36.568 6.88 35.032 6.388 33.46 6.016C32.68 6.712 31.504 7.216 29.932 7.528L29.464 6.76C31.552 6.448 32.872 5.836 33.4 4.924H29.32V4.108ZM28.708 7.84H39.292V8.68H37.708V13.06C37.708 13.804 37.288 14.176 36.46 14.176H35.224L35.044 13.36C35.428 13.384 35.812 13.408 36.172 13.408C36.616 13.408 36.844 13.216 36.844 12.856V8.68H28.708V7.84ZM30.208 9.676H34.84V12.7H30.208V9.676ZM34.024 11.944V10.42H31.024V11.944H34.024ZM42.292 9.22C41.836 9.7 41.32 10.18 40.768 10.66L40.504 9.76C42.112 8.38 43.192 7.036 43.732 5.716H40.78V4.888H42.652C42.448 4.348 42.208 3.832 41.932 3.328L42.76 3.088C43.048 3.688 43.276 4.252 43.444 4.756L43.096 4.888H44.596V5.62C44.284 6.496 43.804 7.36 43.156 8.212C43.816 8.62 44.416 9.088 44.944 9.604L44.452 10.348C44.02 9.868 43.576 9.46 43.144 9.124V14.2H42.292V9.22ZM50.584 3.676V10.312H49.708V4.504H46.336V10.312H45.484V3.676H50.584ZM50.332 14.008H49.18C48.52 14.008 48.196 13.66 48.196 12.964V10.288H49.036V12.784C49.036 13.072 49.168 13.216 49.432 13.216H50.176C50.356 13.216 50.476 13.144 50.548 13.024C50.644 12.868 50.716 12.412 50.752 11.668L51.556 11.92C51.484 12.904 51.352 13.516 51.16 13.732C50.98 13.912 50.704 14.008 50.332 14.008ZM47.584 5.356H48.424V7.648C48.376 9.448 48.064 10.876 47.488 11.944C46.912 12.94 45.988 13.72 44.692 14.272L44.224 13.516C45.484 12.964 46.36 12.244 46.852 11.332C47.308 10.396 47.56 9.16 47.584 7.648V5.356ZM54.976 3.196H55.816V4.612H57.448V5.428H55.816V6.82H57.592V7.66H52.528V6.82H53.224V4.168H54.052V6.82H54.976V3.196ZM56.956 8.668L57.712 8.836C57.184 11.512 55.648 13.276 53.104 14.116L52.612 13.336C55.024 12.592 56.476 11.032 56.956 8.668ZM53.524 8.716L54.28 9.016C53.992 10.144 53.632 11.008 53.176 11.608L52.54 11.056C52.972 10.468 53.308 9.688 53.524 8.716ZM54.952 8.128H55.78V11.26H54.952V8.128ZM57.784 3.676H63.424V4.492H61.024C60.988 4.948 60.94 5.38 60.88 5.812H62.992V11.512H62.152V6.616H59.044V11.512H58.216V5.812H59.98C60.052 5.38 60.1 4.948 60.136 4.492H57.784V3.676ZM61.48 11.572C62.296 12.256 62.992 12.928 63.556 13.6L62.92 14.236C62.428 13.576 61.756 12.868 60.904 12.124L61.48 11.572ZM60.148 7.336H60.988V9.46C60.964 10.744 60.688 11.764 60.184 12.532C59.692 13.24 58.888 13.792 57.76 14.188L57.28 13.444C58.348 13.06 59.092 12.568 59.512 11.968C59.908 11.32 60.124 10.492 60.148 9.46V7.336ZM65.596 3.844H74.212V4.684H69.916V5.488C69.892 6.232 69.844 6.94 69.76 7.588H75.184V8.416H71.464V12.604C71.464 12.988 71.656 13.192 72.04 13.192H73.564C73.852 13.192 74.068 13.108 74.2 12.952C74.368 12.76 74.476 12.208 74.536 11.272L75.352 11.536C75.256 12.712 75.076 13.42 74.812 13.684C74.584 13.9 74.224 14.008 73.72 14.008H71.776C70.984 14.008 70.6 13.6 70.6 12.784V8.416H69.628C69.436 9.46 69.136 10.36 68.728 11.128C67.984 12.424 66.784 13.444 65.116 14.164L64.636 13.396C66.292 12.652 67.432 11.68 68.08 10.456C68.368 9.856 68.584 9.172 68.74 8.416H64.792V7.588H68.884C68.98 6.94 69.028 6.232 69.04 5.488V4.684H65.596V3.844ZM77.008 3.676H80.692V4.372C80.332 5.452 79.9 6.568 79.396 7.744C80.164 8.8 80.584 9.76 80.632 10.624C80.632 11.14 80.5 11.512 80.26 11.74C79.924 12.016 79.324 12.16 78.46 12.172L78.172 11.296C78.364 11.32 78.52 11.344 78.64 11.344C79.084 11.32 79.384 11.26 79.54 11.164C79.684 11.056 79.768 10.876 79.768 10.624C79.768 9.808 79.348 8.884 78.508 7.876C79.072 6.628 79.516 5.5 79.828 4.504H77.848V14.212H77.008V3.676ZM82.108 6.676V8.032H85.648V6.676H82.108ZM85.648 5.884V4.504H82.108V5.884H85.648ZM83.488 8.824H82.108V12.928C82.828 12.712 83.548 12.436 84.256 12.112L84.448 12.916C83.584 13.288 82.504 13.648 81.196 13.996L80.992 13.252C81.16 13.192 81.256 13.096 81.256 12.976V3.688H86.488V8.824H84.268C84.412 9.532 84.652 10.192 85 10.792C85.576 10.468 86.14 9.988 86.68 9.34L87.244 9.904C86.692 10.552 86.08 11.056 85.396 11.404C85.948 12.16 86.668 12.808 87.58 13.348L87.1 14.104C85.108 12.832 83.896 11.068 83.488 8.824ZM98.488 3.676V10.264H97.66V4.48H94.3V10.264H93.472V3.676H98.488ZM98.284 13.984H97.12C96.46 13.984 96.136 13.648 96.136 12.976V10.3H96.952V12.796C96.952 13.072 97.084 13.216 97.36 13.216H98.14C98.344 13.216 98.488 13.144 98.584 13.012C98.692 12.844 98.764 12.376 98.812 11.584L99.568 11.836C99.496 12.856 99.352 13.48 99.148 13.696C98.956 13.888 98.668 13.984 98.284 13.984ZM95.56 5.356H96.376V7.696C96.34 9.472 96.016 10.888 95.392 11.944C94.792 12.928 93.808 13.696 92.44 14.248L91.972 13.516C93.304 12.964 94.24 12.244 94.78 11.344C95.26 10.408 95.524 9.196 95.56 7.696V5.356ZM89.296 5.98C89.968 6.796 90.604 7.612 91.18 8.428C91.48 7.372 91.672 6.22 91.756 4.984H88.792V4.144H92.56V4.804C92.488 6.46 92.224 7.948 91.768 9.28C92.272 10.036 92.728 10.792 93.148 11.536L92.536 12.148C92.2 11.5 91.816 10.864 91.408 10.228C90.832 11.572 90.04 12.736 89.032 13.732L88.48 13.096C89.512 12.064 90.304 10.828 90.856 9.388C90.22 8.464 89.5 7.516 88.708 6.544L89.296 5.98ZM101.464 5.404H105.268C105.4 5.116 105.52 4.816 105.64 4.528C104.464 4.6 103.192 4.636 101.824 4.636L101.572 3.916C104.98 3.916 107.8 3.688 110.044 3.232L110.44 3.916C109.3 4.168 107.98 4.348 106.468 4.468C106.36 4.792 106.24 5.104 106.12 5.404H110.584V6.148H105.772C105.628 6.436 105.472 6.7 105.316 6.964H111.28V7.732H104.788C104.572 8.02 104.356 8.296 104.128 8.56H110.08V14.212H109.252V13.696H103.828V14.212H103V9.712C102.388 10.264 101.716 10.804 100.972 11.308L100.504 10.564C101.812 9.676 102.892 8.74 103.744 7.732H100.816V6.964H104.344C104.536 6.688 104.716 6.412 104.872 6.148H101.464V5.404ZM103.828 10.744V11.5H109.252V10.744H103.828ZM109.252 10.072V9.268H103.828V10.072H109.252ZM103.828 12.172V12.988H109.252V12.172H103.828Z" fill="#F1DEB9"/>
<circle cx="7" cy="33.5" r="7" fill="url(#paint2_linear_622_3331)"/>
<path d="M5 33.5L7 35.5L10 32.5" stroke="url(#paint3_linear_622_3331)" stroke-width="1.5" stroke-linecap="round" stroke-linejoin="round"/>
<path d="M16.06 29.432H17.14L19.816 36.932H19.852L22.528 29.432H23.608L20.44 38H19.228L16.06 29.432ZM24.6001 29.432H25.5721V38H24.6001V29.432ZM27.3757 29.432H30.8797C32.8477 29.432 33.8317 30.272 33.8317 31.952C33.8317 33.644 32.8357 34.496 30.8677 34.496H28.3597V38H27.3757V29.432ZM28.3597 30.284V33.644H30.8197C31.5157 33.644 32.0197 33.5 32.3557 33.224C32.6797 32.948 32.8477 32.528 32.8477 31.952C32.8477 31.376 32.6797 30.956 32.3437 30.704C32.0077 30.416 31.5037 30.284 30.8197 30.284H28.3597ZM36.5029 34.22C36.0469 34.7 35.5309 35.18 34.9789 35.66L34.7149 34.76C36.3229 33.38 37.4029 32.036 37.9429 30.716H34.9909V29.888H36.8629C36.6589 29.348 36.4189 28.832 36.1429 28.328L36.9709 28.088C37.2589 28.688 37.4869 29.252 37.6549 29.756L37.3069 29.888H38.8069V30.62C38.4949 31.496 38.0149 32.36 37.3669 33.212C38.0269 33.62 38.6269 34.088 39.1549 34.604L38.6629 35.348C38.2309 34.868 37.7869 34.46 37.3549 34.124V39.2H36.5029V34.22ZM44.7949 28.676V35.312H43.9189V29.504H40.5469V35.312H39.6949V28.676H44.7949ZM44.5429 39.008H43.3909C42.7309 39.008 42.4069 38.66 42.4069 37.964V35.288H43.2469V37.784C43.2469 38.072 43.3789 38.216 43.6429 38.216H44.3869C44.5669 38.216 44.6869 38.144 44.7589 38.024C44.8549 37.868 44.9269 37.412 44.9629 36.668L45.7669 36.92C45.6949 37.904 45.5629 38.516 45.3709 38.732C45.1909 38.912 44.9149 39.008 44.5429 39.008ZM41.7949 30.356H42.6349V32.648C42.5869 34.448 42.2749 35.876 41.6989 36.944C41.1229 37.94 40.1989 38.72 38.9029 39.272L38.4349 38.516C39.6949 37.964 40.5709 37.244 41.0629 36.332C41.5189 35.396 41.7709 34.16 41.7949 32.648V30.356ZM49.1869 28.196H50.0269V29.612H51.6589V30.428H50.0269V31.82H51.8029V32.66H46.7389V31.82H47.4349V29.168H48.2629V31.82H49.1869V28.196ZM51.1669 33.668L51.9229 33.836C51.3949 36.512 49.8589 38.276 47.3149 39.116L46.8229 38.336C49.2349 37.592 50.6869 36.032 51.1669 33.668ZM47.7349 33.716L48.4909 34.016C48.2029 35.144 47.8429 36.008 47.3869 36.608L46.7509 36.056C47.1829 35.468 47.5189 34.688 47.7349 33.716ZM49.1629 33.128H49.9909V36.26H49.1629V33.128ZM51.9949 28.676H57.6349V29.492H55.2349C55.1989 29.948 55.1509 30.38 55.0909 30.812H57.2029V36.512H56.3629V31.616H53.2549V36.512H52.4269V30.812H54.1909C54.2629 30.38 54.3109 29.948 54.3469 29.492H51.9949V28.676ZM55.6909 36.572C56.5069 37.256 57.2029 37.928 57.7669 38.6L57.1309 39.236C56.6389 38.576 55.9669 37.868 55.1149 37.124L55.6909 36.572ZM54.3589 32.336H55.1989V34.46C55.1749 35.744 54.8989 36.764 54.3949 37.532C53.9029 38.24 53.0989 38.792 51.9709 39.188L51.4909 38.444C52.5589 38.06 53.3029 37.568 53.7229 36.968C54.1189 36.32 54.3349 35.492 54.3589 34.46V32.336ZM59.8069 28.844H68.4229V29.684H64.1269V30.488C64.1029 31.232 64.0549 31.94 63.9709 32.588H69.3949V33.416H65.6749V37.604C65.6749 37.988 65.8669 38.192 66.2509 38.192H67.7749C68.0629 38.192 68.2789 38.108 68.4109 37.952C68.5789 37.76 68.6869 37.208 68.7469 36.272L69.5629 36.536C69.4669 37.712 69.2869 38.42 69.0229 38.684C68.7949 38.9 68.4349 39.008 67.9309 39.008H65.9869C65.1949 39.008 64.8109 38.6 64.8109 37.784V33.416H63.8389C63.6469 34.46 63.3469 35.36 62.9389 36.128C62.1949 37.424 60.9949 38.444 59.3269 39.164L58.8469 38.396C60.5029 37.652 61.6429 36.68 62.2909 35.456C62.5789 34.856 62.7949 34.172 62.9509 33.416H59.0029V32.588H63.0949C63.1909 31.94 63.2389 31.232 63.2509 30.488V29.684H59.8069V28.844ZM71.2189 28.676H74.9029V29.372C74.5429 30.452 74.1109 31.568 73.6069 32.744C74.3749 33.8 74.7949 34.76 74.8429 35.624C74.8429 36.14 74.7109 36.512 74.4709 36.74C74.1349 37.016 73.5349 37.16 72.6709 37.172L72.3829 36.296C72.5749 36.32 72.7309 36.344 72.8509 36.344C73.2949 36.32 73.5949 36.26 73.7509 36.164C73.8949 36.056 73.9789 35.876 73.9789 35.624C73.9789 34.808 73.5589 33.884 72.7189 32.876C73.2829 31.628 73.7269 30.5 74.0389 29.504H72.0589V39.212H71.2189V28.676ZM76.3189 31.676V33.032H79.8589V31.676H76.3189ZM79.8589 30.884V29.504H76.3189V30.884H79.8589ZM77.6989 33.824H76.3189V37.928C77.0389 37.712 77.7589 37.436 78.4669 37.112L78.6589 37.916C77.7949 38.288 76.7149 38.648 75.4069 38.996L75.2029 38.252C75.3709 38.192 75.4669 38.096 75.4669 37.976V28.688H80.6989V33.824H78.4789C78.6229 34.532 78.8629 35.192 79.2109 35.792C79.7869 35.468 80.3509 34.988 80.8909 34.34L81.4549 34.904C80.9029 35.552 80.2909 36.056 79.6069 36.404C80.1589 37.16 80.8789 37.808 81.7909 38.348L81.3109 39.104C79.3189 37.832 78.1069 36.068 77.6989 33.824ZM92.6989 28.676V35.264H91.8709V29.48H88.5109V35.264H87.6829V28.676H92.6989ZM92.4949 38.984H91.3309C90.6709 38.984 90.3469 38.648 90.3469 37.976V35.3H91.1629V37.796C91.1629 38.072 91.2949 38.216 91.5709 38.216H92.3509C92.5549 38.216 92.6989 38.144 92.7949 38.012C92.9029 37.844 92.9749 37.376 93.0229 36.584L93.7789 36.836C93.7069 37.856 93.5629 38.48 93.3589 38.696C93.1669 38.888 92.8789 38.984 92.4949 38.984ZM89.7709 30.356H90.5869V32.696C90.5509 34.472 90.2269 35.888 89.6029 36.944C89.0029 37.928 88.0189 38.696 86.6509 39.248L86.1829 38.516C87.5149 37.964 88.4509 37.244 88.9909 36.344C89.4709 35.408 89.7349 34.196 89.7709 32.696V30.356ZM83.5069 30.98C84.1789 31.796 84.8149 32.612 85.3909 33.428C85.6909 32.372 85.8829 31.22 85.9669 29.984H83.0029V29.144H86.7709V29.804C86.6989 31.46 86.4349 32.948 85.9789 34.28C86.4829 35.036 86.9389 35.792 87.3589 36.536L86.7469 37.148C86.4109 36.5 86.0269 35.864 85.6189 35.228C85.0429 36.572 84.2509 37.736 83.2429 38.732L82.6909 38.096C83.7229 37.064 84.5149 35.828 85.0669 34.388C84.4309 33.464 83.7109 32.516 82.9189 31.544L83.5069 30.98ZM95.6749 30.404H99.4789C99.6109 30.116 99.7309 29.816 99.8509 29.528C98.6749 29.6 97.4029 29.636 96.0349 29.636L95.7829 28.916C99.1909 28.916 102.011 28.688 104.255 28.232L104.651 28.916C103.511 29.168 102.191 29.348 100.679 29.468C100.571 29.792 100.451 30.104 100.331 30.404H104.795V31.148H99.9829C99.8389 31.436 99.6829 31.7 99.5269 31.964H105.491V32.732H98.9989C98.7829 33.02 98.5669 33.296 98.3389 33.56H104.291V39.212H103.463V38.696H98.0389V39.212H97.2109V34.712C96.5989 35.264 95.9269 35.804 95.1829 36.308L94.7149 35.564C96.0229 34.676 97.1029 33.74 97.9549 32.732H95.0269V31.964H98.5549C98.7469 31.688 98.9269 31.412 99.0829 31.148H95.6749V30.404ZM98.0389 35.744V36.5H103.463V35.744H98.0389ZM103.463 35.072V34.268H98.0389V35.072H103.463ZM98.0389 37.172V37.988H103.463V37.172H98.0389Z" fill="#F1DEB9"/>
<circle cx="7" cy="58.5" r="7" fill="url(#paint4_linear_622_3331)"/>
<path d="M5 58.5L7 60.5L10 57.5" stroke="url(#paint5_linear_622_3331)" stroke-width="1.5" stroke-linecap="round" stroke-linejoin="round"/>
<path d="M22.156 53.124C22.288 53.448 22.42 53.808 22.54 54.204H27.292V54.996H16.696V54.204H21.616C21.496 53.868 21.352 53.568 21.208 53.292L22.156 53.124ZM25.372 64.164H24.364L24.16 63.384L25.12 63.42C25.612 63.42 25.864 63.228 25.864 62.844V59.58H18.136V64.2H17.308V58.824H26.692V63.024C26.692 63.78 26.248 64.164 25.372 64.164ZM18.652 55.776H25.36V58.104H18.652V55.776ZM24.52 57.432V56.448H19.492V57.432H24.52ZM19.648 60.348H24.364V62.748H19.648V60.348ZM23.596 62.1V60.996H20.428V62.1H23.596ZM29.68 53.352C30.4 53.868 31 54.384 31.492 54.9L30.88 55.512C30.436 55.02 29.836 54.504 29.068 53.952L29.68 53.352ZM29.308 56.232C30.076 56.82 30.712 57.408 31.24 57.996L30.616 58.608C30.16 58.056 29.512 57.456 28.684 56.832L29.308 56.232ZM30.496 59.568L31.252 59.868C30.772 61.356 30.244 62.748 29.644 64.056L28.852 63.708C29.488 62.364 30.04 60.984 30.496 59.568ZM35.08 53.196H35.92V53.952H39.112V54.672H35.92V55.464H38.656V56.16H35.92V56.976H39.448V57.696H31.588V56.976H35.08V56.16H32.464V55.464H35.08V54.672H31.972V53.952H35.08V53.196ZM33.496 60.744V61.596H37.54V60.744H33.496ZM37.54 60.072V59.184H33.496V60.072H37.54ZM33.496 62.256V64.2H32.68V58.476H38.38V63.144C38.38 63.792 38.056 64.128 37.42 64.128H36.268L36.052 63.36L37.168 63.396C37.408 63.396 37.54 63.252 37.54 62.964V62.256H33.496ZM42.292 59.22C41.836 59.7 41.32 60.18 40.768 60.66L40.504 59.76C42.112 58.38 43.192 57.036 43.732 55.716H40.78V54.888H42.652C42.448 54.348 42.208 53.832 41.932 53.328L42.76 53.088C43.048 53.688 43.276 54.252 43.444 54.756L43.096 54.888H44.596V55.62C44.284 56.496 43.804 57.36 43.156 58.212C43.816 58.62 44.416 59.088 44.944 59.604L44.452 60.348C44.02 59.868 43.576 59.46 43.144 59.124V64.2H42.292V59.22ZM50.584 53.676V60.312H49.708V54.504H46.336V60.312H45.484V53.676H50.584ZM50.332 64.008H49.18C48.52 64.008 48.196 63.66 48.196 62.964V60.288H49.036V62.784C49.036 63.072 49.168 63.216 49.432 63.216H50.176C50.356 63.216 50.476 63.144 50.548 63.024C50.644 62.868 50.716 62.412 50.752 61.668L51.556 61.92C51.484 62.904 51.352 63.516 51.16 63.732C50.98 63.912 50.704 64.008 50.332 64.008ZM47.584 55.356H48.424V57.648C48.376 59.448 48.064 60.876 47.488 61.944C46.912 62.94 45.988 63.72 44.692 64.272L44.224 63.516C45.484 62.964 46.36 62.244 46.852 61.332C47.308 60.396 47.56 59.16 47.584 57.648V55.356ZM54.976 53.196H55.816V54.612H57.448V55.428H55.816V56.82H57.592V57.66H52.528V56.82H53.224V54.168H54.052V56.82H54.976V53.196ZM56.956 58.668L57.712 58.836C57.184 61.512 55.648 63.276 53.104 64.116L52.612 63.336C55.024 62.592 56.476 61.032 56.956 58.668ZM53.524 58.716L54.28 59.016C53.992 60.144 53.632 61.008 53.176 61.608L52.54 61.056C52.972 60.468 53.308 59.688 53.524 58.716ZM54.952 58.128H55.78V61.26H54.952V58.128ZM57.784 53.676H63.424V54.492H61.024C60.988 54.948 60.94 55.38 60.88 55.812H62.992V61.512H62.152V56.616H59.044V61.512H58.216V55.812H59.98C60.052 55.38 60.1 54.948 60.136 54.492H57.784V53.676ZM61.48 61.572C62.296 62.256 62.992 62.928 63.556 63.6L62.92 64.236C62.428 63.576 61.756 62.868 60.904 62.124L61.48 61.572ZM60.148 57.336H60.988V59.46C60.964 60.744 60.688 61.764 60.184 62.532C59.692 63.24 58.888 63.792 57.76 64.188L57.28 63.444C58.348 63.06 59.092 62.568 59.512 61.968C59.908 61.32 60.124 60.492 60.148 59.46V57.336ZM67.3 58.128V64.152H66.424V58.032C66.028 59.256 65.5 60.36 64.852 61.344L64.48 60.396C65.356 59.22 65.98 57.888 66.364 56.376H64.672V55.548H66.424V53.208H67.3V55.548H68.74V56.376H67.3V57.168C67.828 57.756 68.368 58.416 68.92 59.136L68.404 59.892C67.972 59.172 67.612 58.584 67.3 58.128ZM69.832 54.516H68.464V53.688H74.092V54.24C73.852 55.308 73.624 56.232 73.384 57H74.944V57.48C74.692 59.124 74.14 60.516 73.3 61.644C73.936 62.304 74.668 62.892 75.508 63.42L74.956 64.152C74.104 63.6 73.372 62.988 72.748 62.304C72.028 63.06 71.152 63.684 70.12 64.176L69.64 63.384C70.648 62.892 71.488 62.292 72.16 61.584C71.44 60.624 70.9 59.544 70.528 58.356C70.228 60.864 69.52 62.784 68.404 64.116L67.744 63.54C69.112 61.908 69.808 59.28 69.832 55.68V54.516ZM72.688 60.948C73.372 60.036 73.84 58.968 74.08 57.756H72.352C72.592 57.024 72.868 55.944 73.18 54.516H70.684V55.68C70.684 55.848 70.672 56.004 70.672 56.16C70.96 58.008 71.632 59.604 72.688 60.948ZM80.248 54.18H83.308V53.208H84.112V54.18H87.124V54.972H84.112V55.992H86.728V59.052H84.112V62.724H83.308V59.4C82.696 60.468 81.748 61.38 80.464 62.136L79.924 61.452C81.244 60.78 82.18 59.976 82.744 59.052H80.692V55.992H83.308V54.972H80.248V54.18ZM85.936 58.284V56.748H84.112V58.284H85.936ZM83.308 58.284V56.748H81.496V58.284H83.308ZM85.06 59.412C85.912 60.096 86.632 60.78 87.22 61.476L86.644 62.052C86.116 61.38 85.408 60.684 84.496 59.94L85.06 59.412ZM77.512 53.388C78.34 54.012 79.036 54.636 79.6 55.26L78.988 55.86C78.484 55.26 77.8 54.624 76.924 53.952L77.512 53.388ZM84.508 63.984C83.848 63.984 83.128 63.972 82.36 63.96C81.592 63.948 80.956 63.876 80.476 63.744C79.996 63.6 79.576 63.3 79.204 62.868C79.036 62.664 78.88 62.568 78.736 62.568C78.448 62.568 77.98 63.12 77.332 64.224L76.684 63.636C77.308 62.628 77.872 62.016 78.352 61.8V58.152H76.648V57.36H79.156V61.848C79.252 61.92 79.348 62.004 79.456 62.124C79.744 62.472 80.056 62.724 80.392 62.88C80.764 63.048 81.304 63.144 82.024 63.168C82.66 63.18 83.452 63.192 84.388 63.192C84.964 63.192 85.54 63.18 86.128 63.168C86.716 63.156 87.172 63.144 87.484 63.12L87.268 63.984H84.508ZM95.344 59.856H93.544V61.056H95.344V59.856ZM95.344 61.74H93.544V62.892H95.344V61.74ZM96.088 62.892H97.864V61.74H96.088V62.892ZM97.864 63.624H93.544V64.212H92.752V59.28C92.596 59.364 92.44 59.448 92.296 59.52L91.888 58.86V59.016C91.564 59.196 91.24 59.364 90.904 59.532V63.096C90.904 63.756 90.556 64.092 89.884 64.092H88.864L88.684 63.264C88.996 63.3 89.296 63.324 89.584 63.324C89.884 63.324 90.04 63.168 90.04 62.868V59.928C89.584 60.12 89.116 60.288 88.66 60.456L88.444 59.604C88.996 59.46 89.524 59.28 90.04 59.076V56.316H88.648V55.5H90.04V53.232H90.904V55.5H91.948V56.316H90.904V58.692C91.24 58.524 91.564 58.344 91.888 58.164V58.812C93.088 58.344 93.976 57.756 94.552 57.048H92.26V56.28H93.628C93.46 55.908 93.28 55.56 93.076 55.248L93.796 54.972C94 55.332 94.192 55.776 94.36 56.28H95.32V54.54C94.456 54.588 93.52 54.624 92.536 54.624L92.284 53.904C94.852 53.892 96.988 53.676 98.692 53.268L99.088 53.964C98.224 54.192 97.228 54.36 96.1 54.468V56.28H97.012C97.276 55.788 97.516 55.26 97.72 54.708L98.464 54.972C98.26 55.452 98.032 55.896 97.78 56.28H99.256V57.048H96.892C97.528 57.696 98.44 58.248 99.628 58.728L99.244 59.448C97.996 58.848 97 58.056 96.244 57.048H96.1V58.764H95.32V57.048H95.188C94.684 57.864 93.952 58.572 92.98 59.148H98.656V64.212H97.864V63.624ZM96.088 61.056H97.864V59.856H96.088V61.056ZM106.492 57.708C106.276 58.044 106.048 58.356 105.808 58.644L105.28 58.008C106.216 56.808 106.852 55.188 107.188 53.16L108.04 53.304C107.932 53.916 107.8 54.492 107.644 55.02H111.184V55.848H110.296C110.224 57.864 109.756 59.592 108.892 61.02C109.648 62.1 110.548 62.928 111.58 63.504L111.088 64.236C110.044 63.636 109.144 62.808 108.4 61.752C107.68 62.712 106.768 63.516 105.64 64.164L105.148 63.384C106.3 62.76 107.212 61.968 107.908 60.996C107.344 60.036 106.876 58.944 106.492 57.708ZM107.38 55.848C107.26 56.184 107.128 56.496 106.984 56.796C107.344 58.116 107.812 59.256 108.376 60.228C109.048 58.992 109.408 57.528 109.468 55.848H107.38ZM100.66 55.008H102.952C102.736 54.432 102.472 53.88 102.184 53.34L103.024 53.1C103.36 53.796 103.636 54.432 103.828 55.008H105.628V55.836H102.712V56.94C102.712 57.18 102.7 57.408 102.7 57.624H104.992C104.992 60.54 104.932 62.328 104.824 63C104.704 63.684 104.224 64.032 103.372 64.032C103.216 64.032 102.94 64.008 102.544 63.984L102.352 63.24C102.688 63.264 102.988 63.276 103.252 63.276C103.684 63.276 103.948 63.072 104.032 62.676C104.116 62.22 104.164 60.792 104.176 58.416H102.664C102.496 60.984 101.968 62.904 101.08 64.176L100.408 63.588C101.392 62.208 101.884 59.988 101.908 56.94V55.836H100.66V55.008Z" fill="#F1DEB9"/>
<defs>
<linearGradient id="paint0_linear_622_3331" x1="14" y1="8.5" x2="0" y2="8.5" gradientUnits="userSpaceOnUse">
<stop stop-color="#DBA131"/>
<stop offset="1" stop-color="#F0CC83"/>
</linearGradient>
<linearGradient id="paint1_linear_622_3331" x1="7.5" y1="7.5" x2="7.5" y2="10.5" gradientUnits="userSpaceOnUse">
<stop stop-color="#5B3F1E"/>
<stop offset="1" stop-color="#211A18"/>
</linearGradient>
<linearGradient id="paint2_linear_622_3331" x1="14" y1="33.5" x2="0" y2="33.5" gradientUnits="userSpaceOnUse">
<stop stop-color="#DBA131"/>
<stop offset="1" stop-color="#F0CC83"/>
</linearGradient>
<linearGradient id="paint3_linear_622_3331" x1="7.5" y1="32.5" x2="7.5" y2="35.5" gradientUnits="userSpaceOnUse">
<stop stop-color="#5B3F1E"/>
<stop offset="1" stop-color="#211A18"/>
</linearGradient>
<linearGradient id="paint4_linear_622_3331" x1="14" y1="58.5" x2="0" y2="58.5" gradientUnits="userSpaceOnUse">
<stop stop-color="#DBA131"/>
<stop offset="1" stop-color="#F0CC83"/>
</linearGradient>
<linearGradient id="paint5_linear_622_3331" x1="7.5" y1="57.5" x2="7.5" y2="60.5" gradientUnits="userSpaceOnUse">
<stop stop-color="#5B3F1E"/>
<stop offset="1" stop-color="#211A18"/>
</linearGradient>
</defs>
</svg>
