<svg width="112" height="17" viewBox="0 0 112 17" fill="none" xmlns="http://www.w3.org/2000/svg">
<circle cx="7" cy="8.5" r="7" fill="url(#paint0_linear_622_3374)"/>
<path d="M5 8.5L7 10.5L10 7.5" stroke="#D2D9E7" stroke-width="1.5" stroke-linecap="round" stroke-linejoin="round"/>
<path d="M16.06 4.432H17.14L19.816 11.932H19.852L22.528 4.432H23.608L20.44 13H19.228L16.06 4.432ZM24.6001 4.432H25.5721V13H24.6001V4.432ZM27.3757 4.432H30.8797C32.8477 4.432 33.8317 5.272 33.8317 6.952C33.8317 8.644 32.8357 9.496 30.8677 9.496H28.3597V13H27.3757V4.432ZM28.3597 5.284V8.644H30.8197C31.5157 8.644 32.0197 8.5 32.3557 8.224C32.6797 7.948 32.8477 7.528 32.8477 6.952C32.8477 6.376 32.6797 5.956 32.3437 5.704C32.0077 5.416 31.5037 5.284 30.8197 5.284H28.3597ZM36.5029 9.22C36.0469 9.7 35.5309 10.18 34.9789 10.66L34.7149 9.76C36.3229 8.38 37.4029 7.036 37.9429 5.716H34.9909V4.888H36.8629C36.6589 4.348 36.4189 3.832 36.1429 3.328L36.9709 3.088C37.2589 3.688 37.4869 4.252 37.6549 4.756L37.3069 4.888H38.8069V5.62C38.4949 6.496 38.0149 7.36 37.3669 8.212C38.0269 8.62 38.6269 9.088 39.1549 9.604L38.6629 10.348C38.2309 9.868 37.7869 9.46 37.3549 9.124V14.2H36.5029V9.22ZM44.7949 3.676V10.312H43.9189V4.504H40.5469V10.312H39.6949V3.676H44.7949ZM44.5429 14.008H43.3909C42.7309 14.008 42.4069 13.66 42.4069 12.964V10.288H43.2469V12.784C43.2469 13.072 43.3789 13.216 43.6429 13.216H44.3869C44.5669 13.216 44.6869 13.144 44.7589 13.024C44.8549 12.868 44.9269 12.412 44.9629 11.668L45.7669 11.92C45.6949 12.904 45.5629 13.516 45.3709 13.732C45.1909 13.912 44.9149 14.008 44.5429 14.008ZM41.7949 5.356H42.6349V7.648C42.5869 9.448 42.2749 10.876 41.6989 11.944C41.1229 12.94 40.1989 13.72 38.9029 14.272L38.4349 13.516C39.6949 12.964 40.5709 12.244 41.0629 11.332C41.5189 10.396 41.7709 9.16 41.7949 7.648V5.356ZM49.1869 3.196H50.0269V4.612H51.6589V5.428H50.0269V6.82H51.8029V7.66H46.7389V6.82H47.4349V4.168H48.2629V6.82H49.1869V3.196ZM51.1669 8.668L51.9229 8.836C51.3949 11.512 49.8589 13.276 47.3149 14.116L46.8229 13.336C49.2349 12.592 50.6869 11.032 51.1669 8.668ZM47.7349 8.716L48.4909 9.016C48.2029 10.144 47.8429 11.008 47.3869 11.608L46.7509 11.056C47.1829 10.468 47.5189 9.688 47.7349 8.716ZM49.1629 8.128H49.9909V11.26H49.1629V8.128ZM51.9949 3.676H57.6349V4.492H55.2349C55.1989 4.948 55.1509 5.38 55.0909 5.812H57.2029V11.512H56.3629V6.616H53.2549V11.512H52.4269V5.812H54.1909C54.2629 5.38 54.3109 4.948 54.3469 4.492H51.9949V3.676ZM55.6909 11.572C56.5069 12.256 57.2029 12.928 57.7669 13.6L57.1309 14.236C56.6389 13.576 55.9669 12.868 55.1149 12.124L55.6909 11.572ZM54.3589 7.336H55.1989V9.46C55.1749 10.744 54.8989 11.764 54.3949 12.532C53.9029 13.24 53.0989 13.792 51.9709 14.188L51.4909 13.444C52.5589 13.06 53.3029 12.568 53.7229 11.968C54.1189 11.32 54.3349 10.492 54.3589 9.46V7.336ZM59.8069 3.844H68.4229V4.684H64.1269V5.488C64.1029 6.232 64.0549 6.94 63.9709 7.588H69.3949V8.416H65.6749V12.604C65.6749 12.988 65.8669 13.192 66.2509 13.192H67.7749C68.0629 13.192 68.2789 13.108 68.4109 12.952C68.5789 12.76 68.6869 12.208 68.7469 11.272L69.5629 11.536C69.4669 12.712 69.2869 13.42 69.0229 13.684C68.7949 13.9 68.4349 14.008 67.9309 14.008H65.9869C65.1949 14.008 64.8109 13.6 64.8109 12.784V8.416H63.8389C63.6469 9.46 63.3469 10.36 62.9389 11.128C62.1949 12.424 60.9949 13.444 59.3269 14.164L58.8469 13.396C60.5029 12.652 61.6429 11.68 62.2909 10.456C62.5789 9.856 62.7949 9.172 62.9509 8.416H59.0029V7.588H63.0949C63.1909 6.94 63.2389 6.232 63.2509 5.488V4.684H59.8069V3.844ZM71.2189 3.676H74.9029V4.372C74.5429 5.452 74.1109 6.568 73.6069 7.744C74.3749 8.8 74.7949 9.76 74.8429 10.624C74.8429 11.14 74.7109 11.512 74.4709 11.74C74.1349 12.016 73.5349 12.16 72.6709 12.172L72.3829 11.296C72.5749 11.32 72.7309 11.344 72.8509 11.344C73.2949 11.32 73.5949 11.26 73.7509 11.164C73.8949 11.056 73.9789 10.876 73.9789 10.624C73.9789 9.808 73.5589 8.884 72.7189 7.876C73.2829 6.628 73.7269 5.5 74.0389 4.504H72.0589V14.212H71.2189V3.676ZM76.3189 6.676V8.032H79.8589V6.676H76.3189ZM79.8589 5.884V4.504H76.3189V5.884H79.8589ZM77.6989 8.824H76.3189V12.928C77.0389 12.712 77.7589 12.436 78.4669 12.112L78.6589 12.916C77.7949 13.288 76.7149 13.648 75.4069 13.996L75.2029 13.252C75.3709 13.192 75.4669 13.096 75.4669 12.976V3.688H80.6989V8.824H78.4789C78.6229 9.532 78.8629 10.192 79.2109 10.792C79.7869 10.468 80.3509 9.988 80.8909 9.34L81.4549 9.904C80.9029 10.552 80.2909 11.056 79.6069 11.404C80.1589 12.16 80.8789 12.808 81.7909 13.348L81.3109 14.104C79.3189 12.832 78.1069 11.068 77.6989 8.824ZM92.6989 3.676V10.264H91.8709V4.48H88.5109V10.264H87.6829V3.676H92.6989ZM92.4949 13.984H91.3309C90.6709 13.984 90.3469 13.648 90.3469 12.976V10.3H91.1629V12.796C91.1629 13.072 91.2949 13.216 91.5709 13.216H92.3509C92.5549 13.216 92.6989 13.144 92.7949 13.012C92.9029 12.844 92.9749 12.376 93.0229 11.584L93.7789 11.836C93.7069 12.856 93.5629 13.48 93.3589 13.696C93.1669 13.888 92.8789 13.984 92.4949 13.984ZM89.7709 5.356H90.5869V7.696C90.5509 9.472 90.2269 10.888 89.6029 11.944C89.0029 12.928 88.0189 13.696 86.6509 14.248L86.1829 13.516C87.5149 12.964 88.4509 12.244 88.9909 11.344C89.4709 10.408 89.7349 9.196 89.7709 7.696V5.356ZM83.5069 5.98C84.1789 6.796 84.8149 7.612 85.3909 8.428C85.6909 7.372 85.8829 6.22 85.9669 4.984H83.0029V4.144H86.7709V4.804C86.6989 6.46 86.4349 7.948 85.9789 9.28C86.4829 10.036 86.9389 10.792 87.3589 11.536L86.7469 12.148C86.4109 11.5 86.0269 10.864 85.6189 10.228C85.0429 11.572 84.2509 12.736 83.2429 13.732L82.6909 13.096C83.7229 12.064 84.5149 10.828 85.0669 9.388C84.4309 8.464 83.7109 7.516 82.9189 6.544L83.5069 5.98ZM95.6749 5.404H99.4789C99.6109 5.116 99.7309 4.816 99.8509 4.528C98.6749 4.6 97.4029 4.636 96.0349 4.636L95.7829 3.916C99.1909 3.916 102.011 3.688 104.255 3.232L104.651 3.916C103.511 4.168 102.191 4.348 100.679 4.468C100.571 4.792 100.451 5.104 100.331 5.404H104.795V6.148H99.9829C99.8389 6.436 99.6829 6.7 99.5269 6.964H105.491V7.732H98.9989C98.7829 8.02 98.5669 8.296 98.3389 8.56H104.291V14.212H103.463V13.696H98.0389V14.212H97.2109V9.712C96.5989 10.264 95.9269 10.804 95.1829 11.308L94.7149 10.564C96.0229 9.676 97.1029 8.74 97.9549 7.732H95.0269V6.964H98.5549C98.7469 6.688 98.9269 6.412 99.0829 6.148H95.6749V5.404ZM98.0389 10.744V11.5H103.463V10.744H98.0389ZM103.463 10.072V9.268H98.0389V10.072H103.463ZM98.0389 12.172V12.988H103.463V12.172H98.0389Z" fill="#334C71"/>
<defs>
<linearGradient id="paint0_linear_622_3374" x1="2.07812" y1="5.63636" x2="11.9755" y2="6.46714" gradientUnits="userSpaceOnUse">
<stop stop-color="#3F5C87"/>
<stop offset="1" stop-color="#0C192D"/>
</linearGradient>
</defs>
</svg>
