<svg width="24" height="24" viewBox="0 0 24 24" fill="none" xmlns="http://www.w3.org/2000/svg">
<path d="M12.1681 6C13.1616 6 13.9716 6.28022 14.583 6.87363C15.1943 7.45055 15.5 8.24176 15.5 9.24725C15.5 10.0714 15.3013 10.7473 14.9345 11.2747C14.7969 11.4396 14.3537 11.8846 13.6201 12.5769C13.345 12.8242 13.1463 13.1044 13.0087 13.4011C12.8559 13.7308 12.7795 14.0769 12.7795 14.4725V14.7033H11.0218V14.4725C11.0218 13.8462 11.1135 13.3022 11.3275 12.8571C11.5262 12.4121 12.1223 11.7198 13.1157 10.7637L13.2991 10.533C13.5742 10.1703 13.7118 9.77473 13.7118 9.36264C13.7118 8.81868 13.559 8.39011 13.2838 8.07692C12.9935 7.76374 12.5808 7.61538 12.0611 7.61538C11.3886 7.61538 10.9148 7.82967 10.6245 8.29121C10.3646 8.67033 10.2424 9.21428 10.2424 9.90659H8.5C8.5 8.68681 8.82096 7.73077 9.49345 7.03846C10.1507 6.34615 11.0371 6 12.1681 6ZM11.893 15.511C12.2293 15.511 12.5197 15.6264 12.7489 15.8571C12.9629 16.0879 13.0852 16.3846 13.0852 16.7473C13.0852 17.1099 12.9629 17.4231 12.7336 17.6538C12.5044 17.8846 12.2293 18 11.893 18C11.5568 18 11.2817 17.8681 11.0524 17.6374C10.8231 17.4066 10.7162 17.1099 10.7162 16.7473C10.7162 16.3846 10.8231 16.0879 11.0524 15.8571C11.2817 15.6264 11.5568 15.511 11.893 15.511Z" fill="white" fill-opacity="0.5"/>
<circle opacity="0.6" cx="12" cy="12" r="10" stroke="white" stroke-opacity="0.6" stroke-width="2"/>
</svg>
