<svg width="112" height="42" viewBox="0 0 112 42" fill="none" xmlns="http://www.w3.org/2000/svg">
<circle cx="7" cy="8.5" r="7" fill="url(#paint0_linear_622_3355)"/>
<circle cx="7" cy="8.5" r="7" fill="url(#paint1_linear_622_3355)"/>
<path d="M5 8.5L7 10.5L10 7.5" stroke="#F7D19D" stroke-width="1.5" stroke-linecap="round" stroke-linejoin="round"/>
<path d="M16.06 4.432H17.14L19.816 11.932H19.852L22.528 4.432H23.608L20.44 13H19.228L16.06 4.432ZM24.6001 4.432H25.5721V13H24.6001V4.432ZM27.3757 4.432H30.8797C32.8477 4.432 33.8317 5.272 33.8317 6.952C33.8317 8.644 32.8357 9.496 30.8677 9.496H28.3597V13H27.3757V4.432ZM28.3597 5.284V8.644H30.8197C31.5157 8.644 32.0197 8.5 32.3557 8.224C32.6797 7.948 32.8477 7.528 32.8477 6.952C32.8477 6.376 32.6797 5.956 32.3437 5.704C32.0077 5.416 31.5037 5.284 30.8197 5.284H28.3597ZM36.5029 9.22C36.0469 9.7 35.5309 10.18 34.9789 10.66L34.7149 9.76C36.3229 8.38 37.4029 7.036 37.9429 5.716H34.9909V4.888H36.8629C36.6589 4.348 36.4189 3.832 36.1429 3.328L36.9709 3.088C37.2589 3.688 37.4869 4.252 37.6549 4.756L37.3069 4.888H38.8069V5.62C38.4949 6.496 38.0149 7.36 37.3669 8.212C38.0269 8.62 38.6269 9.088 39.1549 9.604L38.6629 10.348C38.2309 9.868 37.7869 9.46 37.3549 9.124V14.2H36.5029V9.22ZM44.7949 3.676V10.312H43.9189V4.504H40.5469V10.312H39.6949V3.676H44.7949ZM44.5429 14.008H43.3909C42.7309 14.008 42.4069 13.66 42.4069 12.964V10.288H43.2469V12.784C43.2469 13.072 43.3789 13.216 43.6429 13.216H44.3869C44.5669 13.216 44.6869 13.144 44.7589 13.024C44.8549 12.868 44.9269 12.412 44.9629 11.668L45.7669 11.92C45.6949 12.904 45.5629 13.516 45.3709 13.732C45.1909 13.912 44.9149 14.008 44.5429 14.008ZM41.7949 5.356H42.6349V7.648C42.5869 9.448 42.2749 10.876 41.6989 11.944C41.1229 12.94 40.1989 13.72 38.9029 14.272L38.4349 13.516C39.6949 12.964 40.5709 12.244 41.0629 11.332C41.5189 10.396 41.7709 9.16 41.7949 7.648V5.356ZM49.1869 3.196H50.0269V4.612H51.6589V5.428H50.0269V6.82H51.8029V7.66H46.7389V6.82H47.4349V4.168H48.2629V6.82H49.1869V3.196ZM51.1669 8.668L51.9229 8.836C51.3949 11.512 49.8589 13.276 47.3149 14.116L46.8229 13.336C49.2349 12.592 50.6869 11.032 51.1669 8.668ZM47.7349 8.716L48.4909 9.016C48.2029 10.144 47.8429 11.008 47.3869 11.608L46.7509 11.056C47.1829 10.468 47.5189 9.688 47.7349 8.716ZM49.1629 8.128H49.9909V11.26H49.1629V8.128ZM51.9949 3.676H57.6349V4.492H55.2349C55.1989 4.948 55.1509 5.38 55.0909 5.812H57.2029V11.512H56.3629V6.616H53.2549V11.512H52.4269V5.812H54.1909C54.2629 5.38 54.3109 4.948 54.3469 4.492H51.9949V3.676ZM55.6909 11.572C56.5069 12.256 57.2029 12.928 57.7669 13.6L57.1309 14.236C56.6389 13.576 55.9669 12.868 55.1149 12.124L55.6909 11.572ZM54.3589 7.336H55.1989V9.46C55.1749 10.744 54.8989 11.764 54.3949 12.532C53.9029 13.24 53.0989 13.792 51.9709 14.188L51.4909 13.444C52.5589 13.06 53.3029 12.568 53.7229 11.968C54.1189 11.32 54.3349 10.492 54.3589 9.46V7.336ZM59.8069 3.844H68.4229V4.684H64.1269V5.488C64.1029 6.232 64.0549 6.94 63.9709 7.588H69.3949V8.416H65.6749V12.604C65.6749 12.988 65.8669 13.192 66.2509 13.192H67.7749C68.0629 13.192 68.2789 13.108 68.4109 12.952C68.5789 12.76 68.6869 12.208 68.7469 11.272L69.5629 11.536C69.4669 12.712 69.2869 13.42 69.0229 13.684C68.7949 13.9 68.4349 14.008 67.9309 14.008H65.9869C65.1949 14.008 64.8109 13.6 64.8109 12.784V8.416H63.8389C63.6469 9.46 63.3469 10.36 62.9389 11.128C62.1949 12.424 60.9949 13.444 59.3269 14.164L58.8469 13.396C60.5029 12.652 61.6429 11.68 62.2909 10.456C62.5789 9.856 62.7949 9.172 62.9509 8.416H59.0029V7.588H63.0949C63.1909 6.94 63.2389 6.232 63.2509 5.488V4.684H59.8069V3.844ZM71.2189 3.676H74.9029V4.372C74.5429 5.452 74.1109 6.568 73.6069 7.744C74.3749 8.8 74.7949 9.76 74.8429 10.624C74.8429 11.14 74.7109 11.512 74.4709 11.74C74.1349 12.016 73.5349 12.16 72.6709 12.172L72.3829 11.296C72.5749 11.32 72.7309 11.344 72.8509 11.344C73.2949 11.32 73.5949 11.26 73.7509 11.164C73.8949 11.056 73.9789 10.876 73.9789 10.624C73.9789 9.808 73.5589 8.884 72.7189 7.876C73.2829 6.628 73.7269 5.5 74.0389 4.504H72.0589V14.212H71.2189V3.676ZM76.3189 6.676V8.032H79.8589V6.676H76.3189ZM79.8589 5.884V4.504H76.3189V5.884H79.8589ZM77.6989 8.824H76.3189V12.928C77.0389 12.712 77.7589 12.436 78.4669 12.112L78.6589 12.916C77.7949 13.288 76.7149 13.648 75.4069 13.996L75.2029 13.252C75.3709 13.192 75.4669 13.096 75.4669 12.976V3.688H80.6989V8.824H78.4789C78.6229 9.532 78.8629 10.192 79.2109 10.792C79.7869 10.468 80.3509 9.988 80.8909 9.34L81.4549 9.904C80.9029 10.552 80.2909 11.056 79.6069 11.404C80.1589 12.16 80.8789 12.808 81.7909 13.348L81.3109 14.104C79.3189 12.832 78.1069 11.068 77.6989 8.824ZM92.6989 3.676V10.264H91.8709V4.48H88.5109V10.264H87.6829V3.676H92.6989ZM92.4949 13.984H91.3309C90.6709 13.984 90.3469 13.648 90.3469 12.976V10.3H91.1629V12.796C91.1629 13.072 91.2949 13.216 91.5709 13.216H92.3509C92.5549 13.216 92.6989 13.144 92.7949 13.012C92.9029 12.844 92.9749 12.376 93.0229 11.584L93.7789 11.836C93.7069 12.856 93.5629 13.48 93.3589 13.696C93.1669 13.888 92.8789 13.984 92.4949 13.984ZM89.7709 5.356H90.5869V7.696C90.5509 9.472 90.2269 10.888 89.6029 11.944C89.0029 12.928 88.0189 13.696 86.6509 14.248L86.1829 13.516C87.5149 12.964 88.4509 12.244 88.9909 11.344C89.4709 10.408 89.7349 9.196 89.7709 7.696V5.356ZM83.5069 5.98C84.1789 6.796 84.8149 7.612 85.3909 8.428C85.6909 7.372 85.8829 6.22 85.9669 4.984H83.0029V4.144H86.7709V4.804C86.6989 6.46 86.4349 7.948 85.9789 9.28C86.4829 10.036 86.9389 10.792 87.3589 11.536L86.7469 12.148C86.4109 11.5 86.0269 10.864 85.6189 10.228C85.0429 11.572 84.2509 12.736 83.2429 13.732L82.6909 13.096C83.7229 12.064 84.5149 10.828 85.0669 9.388C84.4309 8.464 83.7109 7.516 82.9189 6.544L83.5069 5.98ZM95.6749 5.404H99.4789C99.6109 5.116 99.7309 4.816 99.8509 4.528C98.6749 4.6 97.4029 4.636 96.0349 4.636L95.7829 3.916C99.1909 3.916 102.011 3.688 104.255 3.232L104.651 3.916C103.511 4.168 102.191 4.348 100.679 4.468C100.571 4.792 100.451 5.104 100.331 5.404H104.795V6.148H99.9829C99.8389 6.436 99.6829 6.7 99.5269 6.964H105.491V7.732H98.9989C98.7829 8.02 98.5669 8.296 98.3389 8.56H104.291V14.212H103.463V13.696H98.0389V14.212H97.2109V9.712C96.5989 10.264 95.9269 10.804 95.1829 11.308L94.7149 10.564C96.0229 9.676 97.1029 8.74 97.9549 7.732H95.0269V6.964H98.5549C98.7469 6.688 98.9269 6.412 99.0829 6.148H95.6749V5.404ZM98.0389 10.744V11.5H103.463V10.744H98.0389ZM103.463 10.072V9.268H98.0389V10.072H103.463ZM98.0389 12.172V12.988H103.463V12.172H98.0389Z" fill="#43301C"/>
<circle cx="7" cy="33.5" r="7" fill="url(#paint2_linear_622_3355)"/>
<circle cx="7" cy="33.5" r="7" fill="url(#paint3_linear_622_3355)"/>
<path d="M5 33.5L7 35.5L10 32.5" stroke="#F7D19D" stroke-width="1.5" stroke-linecap="round" stroke-linejoin="round"/>
<path d="M22.156 28.124C22.288 28.448 22.42 28.808 22.54 29.204H27.292V29.996H16.696V29.204H21.616C21.496 28.868 21.352 28.568 21.208 28.292L22.156 28.124ZM25.372 39.164H24.364L24.16 38.384L25.12 38.42C25.612 38.42 25.864 38.228 25.864 37.844V34.58H18.136V39.2H17.308V33.824H26.692V38.024C26.692 38.78 26.248 39.164 25.372 39.164ZM18.652 30.776H25.36V33.104H18.652V30.776ZM24.52 32.432V31.448H19.492V32.432H24.52ZM19.648 35.348H24.364V37.748H19.648V35.348ZM23.596 37.1V35.996H20.428V37.1H23.596ZM29.68 28.352C30.4 28.868 31 29.384 31.492 29.9L30.88 30.512C30.436 30.02 29.836 29.504 29.068 28.952L29.68 28.352ZM29.308 31.232C30.076 31.82 30.712 32.408 31.24 32.996L30.616 33.608C30.16 33.056 29.512 32.456 28.684 31.832L29.308 31.232ZM30.496 34.568L31.252 34.868C30.772 36.356 30.244 37.748 29.644 39.056L28.852 38.708C29.488 37.364 30.04 35.984 30.496 34.568ZM35.08 28.196H35.92V28.952H39.112V29.672H35.92V30.464H38.656V31.16H35.92V31.976H39.448V32.696H31.588V31.976H35.08V31.16H32.464V30.464H35.08V29.672H31.972V28.952H35.08V28.196ZM33.496 35.744V36.596H37.54V35.744H33.496ZM37.54 35.072V34.184H33.496V35.072H37.54ZM33.496 37.256V39.2H32.68V33.476H38.38V38.144C38.38 38.792 38.056 39.128 37.42 39.128H36.268L36.052 38.36L37.168 38.396C37.408 38.396 37.54 38.252 37.54 37.964V37.256H33.496ZM42.292 34.22C41.836 34.7 41.32 35.18 40.768 35.66L40.504 34.76C42.112 33.38 43.192 32.036 43.732 30.716H40.78V29.888H42.652C42.448 29.348 42.208 28.832 41.932 28.328L42.76 28.088C43.048 28.688 43.276 29.252 43.444 29.756L43.096 29.888H44.596V30.62C44.284 31.496 43.804 32.36 43.156 33.212C43.816 33.62 44.416 34.088 44.944 34.604L44.452 35.348C44.02 34.868 43.576 34.46 43.144 34.124V39.2H42.292V34.22ZM50.584 28.676V35.312H49.708V29.504H46.336V35.312H45.484V28.676H50.584ZM50.332 39.008H49.18C48.52 39.008 48.196 38.66 48.196 37.964V35.288H49.036V37.784C49.036 38.072 49.168 38.216 49.432 38.216H50.176C50.356 38.216 50.476 38.144 50.548 38.024C50.644 37.868 50.716 37.412 50.752 36.668L51.556 36.92C51.484 37.904 51.352 38.516 51.16 38.732C50.98 38.912 50.704 39.008 50.332 39.008ZM47.584 30.356H48.424V32.648C48.376 34.448 48.064 35.876 47.488 36.944C46.912 37.94 45.988 38.72 44.692 39.272L44.224 38.516C45.484 37.964 46.36 37.244 46.852 36.332C47.308 35.396 47.56 34.16 47.584 32.648V30.356ZM54.976 28.196H55.816V29.612H57.448V30.428H55.816V31.82H57.592V32.66H52.528V31.82H53.224V29.168H54.052V31.82H54.976V28.196ZM56.956 33.668L57.712 33.836C57.184 36.512 55.648 38.276 53.104 39.116L52.612 38.336C55.024 37.592 56.476 36.032 56.956 33.668ZM53.524 33.716L54.28 34.016C53.992 35.144 53.632 36.008 53.176 36.608L52.54 36.056C52.972 35.468 53.308 34.688 53.524 33.716ZM54.952 33.128H55.78V36.26H54.952V33.128ZM57.784 28.676H63.424V29.492H61.024C60.988 29.948 60.94 30.38 60.88 30.812H62.992V36.512H62.152V31.616H59.044V36.512H58.216V30.812H59.98C60.052 30.38 60.1 29.948 60.136 29.492H57.784V28.676ZM61.48 36.572C62.296 37.256 62.992 37.928 63.556 38.6L62.92 39.236C62.428 38.576 61.756 37.868 60.904 37.124L61.48 36.572ZM60.148 32.336H60.988V34.46C60.964 35.744 60.688 36.764 60.184 37.532C59.692 38.24 58.888 38.792 57.76 39.188L57.28 38.444C58.348 38.06 59.092 37.568 59.512 36.968C59.908 36.32 60.124 35.492 60.148 34.46V32.336ZM67.3 33.128V39.152H66.424V33.032C66.028 34.256 65.5 35.36 64.852 36.344L64.48 35.396C65.356 34.22 65.98 32.888 66.364 31.376H64.672V30.548H66.424V28.208H67.3V30.548H68.74V31.376H67.3V32.168C67.828 32.756 68.368 33.416 68.92 34.136L68.404 34.892C67.972 34.172 67.612 33.584 67.3 33.128ZM69.832 29.516H68.464V28.688H74.092V29.24C73.852 30.308 73.624 31.232 73.384 32H74.944V32.48C74.692 34.124 74.14 35.516 73.3 36.644C73.936 37.304 74.668 37.892 75.508 38.42L74.956 39.152C74.104 38.6 73.372 37.988 72.748 37.304C72.028 38.06 71.152 38.684 70.12 39.176L69.64 38.384C70.648 37.892 71.488 37.292 72.16 36.584C71.44 35.624 70.9 34.544 70.528 33.356C70.228 35.864 69.52 37.784 68.404 39.116L67.744 38.54C69.112 36.908 69.808 34.28 69.832 30.68V29.516ZM72.688 35.948C73.372 35.036 73.84 33.968 74.08 32.756H72.352C72.592 32.024 72.868 30.944 73.18 29.516H70.684V30.68C70.684 30.848 70.672 31.004 70.672 31.16C70.96 33.008 71.632 34.604 72.688 35.948ZM80.248 29.18H83.308V28.208H84.112V29.18H87.124V29.972H84.112V30.992H86.728V34.052H84.112V37.724H83.308V34.4C82.696 35.468 81.748 36.38 80.464 37.136L79.924 36.452C81.244 35.78 82.18 34.976 82.744 34.052H80.692V30.992H83.308V29.972H80.248V29.18ZM85.936 33.284V31.748H84.112V33.284H85.936ZM83.308 33.284V31.748H81.496V33.284H83.308ZM85.06 34.412C85.912 35.096 86.632 35.78 87.22 36.476L86.644 37.052C86.116 36.38 85.408 35.684 84.496 34.94L85.06 34.412ZM77.512 28.388C78.34 29.012 79.036 29.636 79.6 30.26L78.988 30.86C78.484 30.26 77.8 29.624 76.924 28.952L77.512 28.388ZM84.508 38.984C83.848 38.984 83.128 38.972 82.36 38.96C81.592 38.948 80.956 38.876 80.476 38.744C79.996 38.6 79.576 38.3 79.204 37.868C79.036 37.664 78.88 37.568 78.736 37.568C78.448 37.568 77.98 38.12 77.332 39.224L76.684 38.636C77.308 37.628 77.872 37.016 78.352 36.8V33.152H76.648V32.36H79.156V36.848C79.252 36.92 79.348 37.004 79.456 37.124C79.744 37.472 80.056 37.724 80.392 37.88C80.764 38.048 81.304 38.144 82.024 38.168C82.66 38.18 83.452 38.192 84.388 38.192C84.964 38.192 85.54 38.18 86.128 38.168C86.716 38.156 87.172 38.144 87.484 38.12L87.268 38.984H84.508ZM95.344 34.856H93.544V36.056H95.344V34.856ZM95.344 36.74H93.544V37.892H95.344V36.74ZM96.088 37.892H97.864V36.74H96.088V37.892ZM97.864 38.624H93.544V39.212H92.752V34.28C92.596 34.364 92.44 34.448 92.296 34.52L91.888 33.86V34.016C91.564 34.196 91.24 34.364 90.904 34.532V38.096C90.904 38.756 90.556 39.092 89.884 39.092H88.864L88.684 38.264C88.996 38.3 89.296 38.324 89.584 38.324C89.884 38.324 90.04 38.168 90.04 37.868V34.928C89.584 35.12 89.116 35.288 88.66 35.456L88.444 34.604C88.996 34.46 89.524 34.28 90.04 34.076V31.316H88.648V30.5H90.04V28.232H90.904V30.5H91.948V31.316H90.904V33.692C91.24 33.524 91.564 33.344 91.888 33.164V33.812C93.088 33.344 93.976 32.756 94.552 32.048H92.26V31.28H93.628C93.46 30.908 93.28 30.56 93.076 30.248L93.796 29.972C94 30.332 94.192 30.776 94.36 31.28H95.32V29.54C94.456 29.588 93.52 29.624 92.536 29.624L92.284 28.904C94.852 28.892 96.988 28.676 98.692 28.268L99.088 28.964C98.224 29.192 97.228 29.36 96.1 29.468V31.28H97.012C97.276 30.788 97.516 30.26 97.72 29.708L98.464 29.972C98.26 30.452 98.032 30.896 97.78 31.28H99.256V32.048H96.892C97.528 32.696 98.44 33.248 99.628 33.728L99.244 34.448C97.996 33.848 97 33.056 96.244 32.048H96.1V33.764H95.32V32.048H95.188C94.684 32.864 93.952 33.572 92.98 34.148H98.656V39.212H97.864V38.624ZM96.088 36.056H97.864V34.856H96.088V36.056ZM106.492 32.708C106.276 33.044 106.048 33.356 105.808 33.644L105.28 33.008C106.216 31.808 106.852 30.188 107.188 28.16L108.04 28.304C107.932 28.916 107.8 29.492 107.644 30.02H111.184V30.848H110.296C110.224 32.864 109.756 34.592 108.892 36.02C109.648 37.1 110.548 37.928 111.58 38.504L111.088 39.236C110.044 38.636 109.144 37.808 108.4 36.752C107.68 37.712 106.768 38.516 105.64 39.164L105.148 38.384C106.3 37.76 107.212 36.968 107.908 35.996C107.344 35.036 106.876 33.944 106.492 32.708ZM107.38 30.848C107.26 31.184 107.128 31.496 106.984 31.796C107.344 33.116 107.812 34.256 108.376 35.228C109.048 33.992 109.408 32.528 109.468 30.848H107.38ZM100.66 30.008H102.952C102.736 29.432 102.472 28.88 102.184 28.34L103.024 28.1C103.36 28.796 103.636 29.432 103.828 30.008H105.628V30.836H102.712V31.94C102.712 32.18 102.7 32.408 102.7 32.624H104.992C104.992 35.54 104.932 37.328 104.824 38C104.704 38.684 104.224 39.032 103.372 39.032C103.216 39.032 102.94 39.008 102.544 38.984L102.352 38.24C102.688 38.264 102.988 38.276 103.252 38.276C103.684 38.276 103.948 38.072 104.032 37.676C104.116 37.22 104.164 35.792 104.176 33.416H102.664C102.496 35.984 101.968 37.904 101.08 39.176L100.408 38.588C101.392 37.208 101.884 34.988 101.908 31.94V30.836H100.66V30.008Z" fill="#43301C"/>
<defs>
<linearGradient id="paint0_linear_622_3355" x1="14" y1="8.5" x2="0" y2="8.5" gradientUnits="userSpaceOnUse">
<stop stop-color="#DBA131"/>
<stop offset="1" stop-color="#F0CC83"/>
</linearGradient>
<linearGradient id="paint1_linear_622_3355" x1="2.07812" y1="5.63636" x2="11.9755" y2="6.46714" gradientUnits="userSpaceOnUse">
<stop stop-color="#683F0E"/>
<stop offset="1" stop-color="#561806"/>
</linearGradient>
<linearGradient id="paint2_linear_622_3355" x1="14" y1="33.5" x2="0" y2="33.5" gradientUnits="userSpaceOnUse">
<stop stop-color="#DBA131"/>
<stop offset="1" stop-color="#F0CC83"/>
</linearGradient>
<linearGradient id="paint3_linear_622_3355" x1="2.07812" y1="30.6364" x2="11.9755" y2="31.4671" gradientUnits="userSpaceOnUse">
<stop stop-color="#683F0E"/>
<stop offset="1" stop-color="#561806"/>
</linearGradient>
</defs>
</svg>
