<svg width="24" height="24" viewBox="0 0 24 24" fill="none" xmlns="http://www.w3.org/2000/svg">
<path d="M20 11.5C20 15.9183 15 21.5 12 21.5C9 21.5 4 15.9183 4 11.5C4 7.08172 7.02944 2.5 12 2.5C16.9706 2.5 20 7.08172 20 11.5Z" fill="#F83E3C" stroke="#F83E3C"/>
<path d="M16.6219 11.7551C15.8876 12.4894 14.6966 12.5632 14.3296 12.122C13.9626 11.6807 13.9622 10.564 14.6965 9.82974C15.4308 9.09544 16.6457 9.09577 16.9887 9.46285C17.3318 9.82993 17.3562 11.0208 16.6219 11.7551Z" fill="white" stroke="white"/>
<path d="M7.32974 11.7551C8.06404 12.4894 9.25501 12.5632 9.62199 12.122C9.98897 11.6807 9.9894 10.564 9.2551 9.82974C8.5208 9.09544 7.30595 9.09577 6.96285 9.46285C6.61976 9.82993 6.59544 11.0208 7.32974 11.7551Z" fill="white" stroke="white"/>
</svg>
