<svg width="20" height="20" viewBox="0 0 20 20" fill="none" xmlns="http://www.w3.org/2000/svg">
<path d="M11.7339 7.59997V4.4C11.7339 3.07451 10.6849 2 9.39077 2L6.2666 9.19996V17.9999H15.3423C16.1212 18.0089 16.7876 17.4287 16.9044 16.6399L17.9822 9.43996C18.051 8.97583 17.9173 8.50419 17.6166 8.14997C17.3159 7.79575 16.8784 7.59464 16.4202 7.59997H11.7339Z" fill="#F83E3C"/>
<path d="M10 12.2857L11.4545 14L14 11" stroke="white" stroke-width="1.5" stroke-linecap="round" stroke-linejoin="round"/>
<path opacity="0.7" d="M6.26667 9.46689H3.98827C2.9886 9.45098 2.13402 10.1962 2 11.0879V16.4637C2.13402 17.3554 2.9886 18.0156 3.98827 17.9997H6.26667V9.46689Z" fill="#F83E3C"/>
</svg>
