<svg width="42" height="20" viewBox="0 0 42 20" fill="none" xmlns="http://www.w3.org/2000/svg">
<path d="M4.172 13.222V14.566C3.206 15.07 2.114 15.462 0.896 15.77L0.714 14.37C2.03 14.09 3.178 13.698 4.172 13.222ZM2.534 3.45L3.892 3.982C3.304 5.578 2.716 6.894 2.1 7.902C2.52 7.846 2.94 7.79 3.36 7.72C3.584 7.272 3.808 6.81 4.046 6.32L5.306 6.796C4.27 8.812 3.388 10.31 2.688 11.262C3.346 11.108 4.018 10.912 4.704 10.674V11.962C3.402 12.396 2.17 12.69 1.022 12.83L0.644 11.542C0.896 11.444 1.12 11.304 1.288 11.136C1.652 10.73 2.128 10.016 2.688 9.008C2.1 9.092 1.47 9.19 0.826 9.288L0.462 7.986C0.686 7.902 0.896 7.72 1.064 7.454C1.624 6.236 2.114 4.906 2.534 3.45ZM11.956 16.4H11.354L11.102 15.49V16.162H10.094V13.46H9.408V16.162H8.386V13.46H7.644V16.47H6.454V11.542C6.16 13.362 5.614 15 4.816 16.456L3.766 15.518C4.83 13.67 5.362 11.29 5.376 8.378V4.808H8.428C8.26 4.388 8.092 3.996 7.896 3.646L9.408 3.394C9.562 3.814 9.716 4.29 9.87 4.808H13.006V8.714H6.706L6.664 9.568H13.062V15.294C13.062 16.022 12.684 16.4 11.956 16.4ZM11.102 13.46V15.294L11.592 15.35C11.76 15.35 11.858 15.238 11.858 15.028V13.46H11.102ZM7.644 12.284H8.386V10.8H7.644V12.284ZM9.408 10.8V12.284H10.094V10.8H9.408ZM11.102 10.8V12.284H11.858V10.8H11.102ZM11.662 6.082H6.706V7.482H11.662V6.082ZM17.15 7.44H18.564V9.316H19.95V10.632H18.564V12.116C19.11 12.004 19.628 11.892 20.132 11.78V13.124C19.628 13.25 19.096 13.376 18.564 13.488V16.47H17.15V13.754C16.366 13.894 15.568 14.006 14.728 14.118L14.532 12.718C15.456 12.606 16.324 12.494 17.15 12.368V10.632H15.036L14.728 9.344C15.05 8.644 15.358 7.748 15.638 6.684H14.658V5.312H15.96C16.086 4.738 16.212 4.136 16.324 3.506L17.71 3.716C17.598 4.276 17.5 4.808 17.388 5.312H20.132V6.684H17.052C16.786 7.664 16.506 8.532 16.198 9.316H17.15V7.44ZM20.86 3.94H26.684V7.16H20.86V3.94ZM25.298 6.068V5.088H22.26V6.068H25.298ZM20.902 9.008H20.048V7.748H27.398V9.008H26.46V13.53L27.538 13.362V14.594L26.46 14.79V16.484H25.06V15C23.464 15.224 21.728 15.434 19.866 15.602L19.684 14.3C20.104 14.258 20.51 14.23 20.902 14.202V9.008ZM25.06 9.008H22.274V9.848H25.06V9.008ZM22.274 14.076C23.254 13.964 24.192 13.852 25.06 13.74V13.054H22.274V14.076ZM22.274 11.878H25.06V11.024H22.274V11.878Z" fill="#7055FA"/>
<path d="M33 14L38 10L33 6" stroke="#7055FA" stroke-width="2" stroke-linecap="round" stroke-linejoin="round"/>
</svg>
