<svg width="16" height="16" viewBox="0 0 16 16" fill="none" xmlns="http://www.w3.org/2000/svg">
<path d="M6.99735 1.0406C7.46073 0.319799 8.53927 0.319798 9.00265 1.0406L10.7295 3.72684C10.8919 3.97935 11.1484 4.1608 11.4453 4.23306L14.6033 5.00177C15.4507 5.20804 15.784 6.20658 15.223 6.85833L13.1322 9.28723C12.9357 9.51555 12.8377 9.80913 12.8588 10.1063L13.0837 13.2676C13.144 14.1159 12.2715 14.7331 11.4614 14.4151L8.44234 13.23C8.15855 13.1186 7.84145 13.1186 7.55766 13.23L4.53862 14.4151C3.72851 14.7331 2.85595 14.1159 2.91629 13.2676L3.14117 10.1063C3.1623 9.80913 3.06431 9.51555 2.86778 9.28723L0.777043 6.85833C0.21603 6.20658 0.549317 5.20804 1.39671 5.00177L4.55473 4.23306C4.85159 4.1608 5.10813 3.97935 5.27046 3.72684L6.99735 1.0406Z" fill="#FFE30E"/>
</svg>
