<svg width="16" height="16" viewBox="0 0 16 16" fill="none" xmlns="http://www.w3.org/2000/svg">
<g clip-path="url(#clip0_31_4385)">
<circle cx="8" cy="8" r="8" fill="#5898E7"/>
<path d="M5.94803 3.5C6.14802 3.5 6.33227 3.60845 6.42934 3.78329L7.10268 4.99622C7.19084 5.15503 7.195 5.34712 7.11375 5.50959L6.46507 6.80698C6.46507 6.80698 6.65306 7.77346 7.4398 8.5602C8.22654 9.34694 9.18979 9.53168 9.18979 9.53168L10.487 8.88311C10.6495 8.8018 10.8418 8.80602 11.0006 8.89434L12.217 9.5706C12.3917 9.66773 12.5 9.85187 12.5 10.0517V11.4481C12.5 12.1593 11.8395 12.6729 11.1656 12.4455C9.78177 11.9786 7.63362 11.0895 6.27207 9.72793C4.91049 8.36638 4.02142 6.21822 3.55447 4.83435C3.32712 4.16054 3.84074 3.5 4.55186 3.5H5.94803Z" fill="white"/>
</g>
<defs>
<clipPath id="clip0_31_4385">
<rect width="16" height="16" fill="white"/>
</clipPath>
</defs>
</svg>
