<svg width="28" height="28" viewBox="0 0 28 28" fill="none" xmlns="http://www.w3.org/2000/svg">
<path d="M12.8421 23.8075C13.4421 24.536 14.5579 24.536 15.1579 23.8075L25.7206 10.9813C26.1227 10.4931 26.1753 9.80519 25.8523 9.2615L22.1859 3.09094C21.9156 2.63599 21.4256 2.35714 20.8964 2.35714H7.10362C6.57443 2.35714 6.08439 2.63599 5.81408 3.09093L2.14771 9.26151C1.82467 9.80519 1.87733 10.4931 2.27936 10.9813L12.8421 23.8075Z" fill="url(#paint0_linear_30_1934)" stroke="url(#paint1_linear_30_1934)"/>
<g filter="url(#filter0_di_30_1934)">
<path d="M7 8L8 9H8.8533L13.7285 16.9776L18.716 8H15.2842L13.605 11.0224L11.758 8H7Z" fill="url(#paint2_linear_30_1934)"/>
</g>
<defs>
<filter id="filter0_di_30_1934" x="5" y="7" width="15.7158" height="12.9776" filterUnits="userSpaceOnUse" color-interpolation-filters="sRGB">
<feFlood flood-opacity="0" result="BackgroundImageFix"/>
<feColorMatrix in="SourceAlpha" type="matrix" values="0 0 0 0 0 0 0 0 0 0 0 0 0 0 0 0 0 0 127 0" result="hardAlpha"/>
<feOffset dy="1"/>
<feGaussianBlur stdDeviation="1"/>
<feComposite in2="hardAlpha" operator="out"/>
<feColorMatrix type="matrix" values="0 0 0 0 0 0 0 0 0 0 0 0 0 0 0 0 0 0 0.51 0"/>
<feBlend mode="overlay" in2="BackgroundImageFix" result="effect1_dropShadow_30_1934"/>
<feBlend mode="normal" in="SourceGraphic" in2="effect1_dropShadow_30_1934" result="shape"/>
<feColorMatrix in="SourceAlpha" type="matrix" values="0 0 0 0 0 0 0 0 0 0 0 0 0 0 0 0 0 0 127 0" result="hardAlpha"/>
<feOffset/>
<feGaussianBlur stdDeviation="0.5"/>
<feComposite in2="hardAlpha" operator="arithmetic" k2="-1" k3="1"/>
<feColorMatrix type="matrix" values="0 0 0 0 1 0 0 0 0 1 0 0 0 0 1 0 0 0 1 0"/>
<feBlend mode="overlay" in2="shape" result="effect2_innerShadow_30_1934"/>
</filter>
<linearGradient id="paint0_linear_30_1934" x1="12.7963" y1="23.3175" x2="20.4269" y2="8.52579" gradientUnits="userSpaceOnUse">
<stop stop-color="#200000"/>
<stop offset="1" stop-color="#7F1300"/>
</linearGradient>
<linearGradient id="paint1_linear_30_1934" x1="9.90741" y1="29.3532" x2="25.8531" y2="15.548" gradientUnits="userSpaceOnUse">
<stop stop-color="#FBCA9A"/>
<stop offset="0.35" stop-color="#FFEBD7"/>
<stop offset="1" stop-color="#D57A59"/>
</linearGradient>
<linearGradient id="paint2_linear_30_1934" x1="10.8559" y1="8.49875" x2="10.8559" y2="16.4788" gradientUnits="userSpaceOnUse">
<stop stop-color="#FFE9C4"/>
<stop offset="0.415" stop-color="#F9D4A0"/>
<stop offset="0.45" stop-color="#C6A764"/>
<stop offset="1" stop-color="#C47744"/>
</linearGradient>
</defs>
</svg>
