<svg width="12" height="13" viewBox="0 0 12 13" fill="none" xmlns="http://www.w3.org/2000/svg">
<rect y="0.5" width="12" height="12" rx="2" fill="#A87EDF"/>
<path d="M4.3457 3.5H6.72986C7.78948 3.5 8.5842 3.79231 9.13228 4.37693C9.65296 4.92501 9.91787 5.71973 9.91787 6.76109C9.91787 7.79331 9.65296 8.58803 9.13228 9.14524C8.5842 9.72986 7.78948 10.0222 6.72986 10.0222H4.3457V3.5ZM5.41446 4.41347V9.1087H6.5289C7.34188 9.1087 7.93564 8.91687 8.31016 8.54235C8.67555 8.15869 8.85824 7.56494 8.85824 6.76109C8.85824 5.93896 8.67555 5.33607 8.31016 4.97069C7.93564 4.59616 7.34188 4.41347 6.5289 4.41347H5.41446Z" fill="white"/>
<path d="M2 3.5H3.06876V10.0222H2V3.5Z" fill="white"/>
</svg>
