<svg width="16" height="16" viewBox="0 0 16 16" fill="none" xmlns="http://www.w3.org/2000/svg">
<rect y="2" width="16" height="12" rx="2" fill="#D56666"/>
<path d="M6.66641 4.14285H9.37636C10.5808 4.14285 11.4841 4.48859 12.1071 5.18007C12.6989 5.82833 13 6.7683 13 7.99999C13 9.22088 12.6989 10.1609 12.1071 10.8199C11.4841 11.5114 10.5808 11.8571 9.37636 11.8571H6.66641V4.14285ZM7.88121 5.22329V10.7767H9.14793C10.072 10.7767 10.7469 10.5498 11.1726 10.1068C11.5879 9.65306 11.7956 8.95078 11.7956 7.99999C11.7956 7.02761 11.5879 6.31452 11.1726 5.88235C10.7469 5.43937 10.072 5.22329 9.14793 5.22329H7.88121Z" fill="white"/>
<path d="M4 4.14285H5.2148V11.8571H4V4.14285Z" fill="white"/>
</svg>
