<svg width="163" height="18" viewBox="0 0 163 18" fill="none" xmlns="http://www.w3.org/2000/svg">
<path d="M6.384 9.216V10.416H8.136V9.216H6.384ZM6.384 11.58V12.948H8.136V11.58H6.384ZM6.384 14.148V14.688H5.148V8.172C4.908 8.484 4.668 8.796 4.428 9.096L4.236 8.496V9.744C3.912 9.888 3.588 10.032 3.264 10.164V13.344C3.264 14.16 2.832 14.58 1.992 14.58H0.912L0.636 13.368C0.96 13.416 1.272 13.452 1.56 13.452C1.848 13.452 2.004 13.308 2.004 13.02V10.632C1.572 10.776 1.128 10.92 0.684 11.04L0.372 9.768C0.924 9.66 1.464 9.528 2.004 9.36V6.936H0.6V5.724H2.004V3.648H3.264V5.724H4.332V6.936H3.264V8.904C3.6 8.76 3.912 8.616 4.224 8.46L4.008 7.788C4.944 6.54 5.592 5.16 5.976 3.66L7.2 3.9C7.032 4.476 6.84 5.028 6.612 5.568H8.292C8.112 5.016 7.908 4.464 7.668 3.936L8.88 3.612C9.132 4.32 9.336 4.968 9.48 5.568H11.268V6.768H9.372V8.04H11.028V9.216H9.372V10.416H11.028V11.58H9.372V12.948H11.4V14.148H6.384ZM8.136 6.768H6.384V8.04H8.136V6.768ZM12.732 4.368H15.336V3.648H16.608V4.368H19.392V3.648H20.664V4.368H23.268V5.508H20.664V6.252H19.392V5.508H16.608V6.108L17.82 6.336C17.748 6.528 17.676 6.72 17.604 6.9H23.208V8.04H17.04C16.68 8.64 16.272 9.216 15.792 9.744V14.772H14.58V10.92C14.16 11.268 13.716 11.604 13.26 11.916L12.48 10.884C13.776 10.044 14.808 9.096 15.576 8.04H12.936V6.9H16.26C16.368 6.672 16.464 6.456 16.56 6.24H15.336V5.508H12.732V4.368ZM19.536 10.512C19.8 10.332 20.184 10.092 20.688 9.792H17.232V8.664H22.5V9.552C22.008 9.924 21.444 10.344 20.796 10.824V11.016H23.256V12.192H20.796V13.632C20.796 14.376 20.424 14.748 19.692 14.748H18.216L17.856 13.536C18.42 13.584 18.864 13.62 19.2 13.62C19.416 13.62 19.536 13.5 19.536 13.284V12.192H16.404V11.016H19.536V10.512ZM26.376 3.54L27.6 3.66C27.468 4.428 27.336 5.136 27.216 5.796H29.184V6.48C29.112 8.352 28.752 9.972 28.116 11.352C28.752 11.856 29.28 12.3 29.688 12.708L28.836 13.692C28.464 13.308 28.02 12.9 27.516 12.468C26.94 13.38 26.232 14.16 25.368 14.832L24.504 13.764C25.32 13.164 26.004 12.468 26.532 11.652C25.992 11.208 25.404 10.752 24.768 10.284C25.116 9.276 25.428 8.184 25.716 7.008H24.612V5.796H25.98C26.124 5.064 26.256 4.308 26.376 3.54ZM27.108 10.596C27.576 9.54 27.864 8.34 27.96 7.008H26.964C26.7 8.16 26.424 9.12 26.136 9.9C26.484 10.14 26.808 10.368 27.108 10.596ZM29.424 8.544H31.98V7.224C32.556 6.696 33.12 6.072 33.672 5.352H29.76V4.128H35.112V5.352C34.56 6.144 33.936 6.9 33.24 7.608V8.544H35.532V9.768H33.24V13.212C33.24 14.148 32.88 14.616 32.184 14.616H30.384L30.06 13.428C30.54 13.44 31.08 13.452 31.668 13.452C31.872 13.452 31.98 13.248 31.98 12.84V9.768H29.424V8.544ZM36.828 5.16H39.996C40.056 4.668 40.116 4.164 40.164 3.648H41.424C41.376 4.176 41.316 4.68 41.256 5.16H47.328V6.384H41.076C40.992 6.888 40.908 7.368 40.812 7.824H46.2V8.916C45.768 10.164 45.072 11.232 44.124 12.144C45.06 12.78 46.188 13.26 47.508 13.596L46.872 14.736C45.372 14.316 44.124 13.728 43.14 12.972C42.132 13.704 40.92 14.316 39.504 14.796L38.856 13.596C40.188 13.236 41.316 12.756 42.228 12.156C41.412 11.316 40.824 10.32 40.488 9.168C40.368 9.6 40.236 9.996 40.104 10.356C39.468 11.964 38.52 13.392 37.272 14.664L36.468 13.62C37.572 12.492 38.4 11.22 38.964 9.804C39.3 8.868 39.588 7.728 39.816 6.384H36.828V5.16ZM41.592 8.988C41.952 9.924 42.48 10.728 43.2 11.4C43.968 10.704 44.532 9.9 44.892 8.988H41.592Z" fill="url(#paint0_linear_31_1888)"/>
<path d="M52.1 7.236C51.788 7.464 51.476 7.68 51.164 7.884L50.612 7.224C52.124 6.312 53.36 5.124 54.332 3.636L55.196 3.84C55.004 4.152 54.8 4.452 54.584 4.74H58.724V5.4C58.22 6.024 57.728 6.552 57.236 6.984H60.176V10.62H57.44V13.068C57.44 13.464 57.608 13.668 57.956 13.668H59.888C60.104 13.668 60.248 13.584 60.344 13.44C60.464 13.248 60.536 12.708 60.572 11.808L61.4 12.072C61.316 13.224 61.172 13.932 60.956 14.184C60.764 14.4 60.464 14.508 60.044 14.508H57.692C56.948 14.508 56.576 14.088 56.576 13.248V10.62H55.952C55.868 10.848 55.772 11.064 55.676 11.28C55.028 12.672 53.528 13.812 51.2 14.712L50.648 14.028C52.736 13.26 54.128 12.288 54.8 11.136C54.884 10.968 54.956 10.788 55.028 10.62H52.1V7.236ZM56.132 6.984C56.636 6.564 57.116 6.084 57.596 5.532H53.948C53.48 6.06 52.976 6.54 52.424 6.984H56.132ZM59.348 9.804V7.788H56.432C56.408 8.52 56.336 9.192 56.192 9.804H59.348ZM55.292 9.804C55.448 9.192 55.544 8.52 55.568 7.788H52.94V9.804H55.292ZM64.544 6.456L64.352 7.212H66.128C66.2 6.972 66.248 6.72 66.26 6.456H64.544ZM67.1 6.456C67.076 6.72 67.04 6.972 66.992 7.212H68.852V6.456H67.1ZM69.692 6.456V7.212H72.92C72.92 8.1 72.824 8.652 72.644 8.88C72.464 9.144 72.044 9.276 71.396 9.276C71.204 9.276 71.012 9.264 70.844 9.264L70.676 8.652C70.892 8.664 71.096 8.676 71.288 8.676C71.66 8.676 71.888 8.616 71.984 8.496C72.056 8.388 72.092 8.184 72.104 7.872H69.692V9.24H68.852V7.872H66.752C66.596 8.172 66.404 8.436 66.188 8.664C65.804 9.024 65.276 9.324 64.58 9.564H71.948V12.828H71.096V10.332H65.216V12.828H64.364V9.636C64.064 9.732 63.752 9.816 63.44 9.888L63.008 9.204C64.232 8.94 65.072 8.592 65.54 8.16C65.624 8.064 65.708 7.968 65.78 7.872H63.416L63.836 5.772H66.26V5.004H63.524V4.296H66.26V3.672H67.1V4.296H68.852V3.672H69.692V4.296H72.344V6.456H69.692ZM67.1 5.004V5.772H68.852V5.004H67.1ZM69.692 5.004V5.772H71.528V5.004H69.692ZM68.804 12.66C70.352 13.032 71.768 13.488 73.052 14.04L72.584 14.76C71.216 14.136 69.812 13.656 68.372 13.308L68.804 12.66ZM67.688 10.752L68.552 10.836C68.396 12.204 68.036 13.116 67.472 13.596C66.848 14.184 65.468 14.556 63.308 14.712L62.96 13.944C64.868 13.848 66.128 13.572 66.74 13.092C67.28 12.624 67.592 11.844 67.688 10.752ZM74.72 4.62H77.528V3.636H78.416V4.62H81.584V3.636H82.472V4.62H85.28V5.4H82.472V6.276H81.584V5.4H78.416V6.276H77.528V5.4H74.72V4.62ZM78.092 6.564L78.812 7.008C78.38 7.56 77.96 8.028 77.528 8.412C78.116 9.408 78.416 10.632 78.416 12.084C78.416 13.14 78.26 13.872 77.948 14.28C77.72 14.52 77.384 14.64 76.94 14.64C76.46 14.64 76.088 14.628 75.8 14.616L75.56 13.824C75.932 13.86 76.328 13.884 76.736 13.884C77.036 13.884 77.252 13.776 77.372 13.584C77.516 13.332 77.588 12.816 77.6 12.024C77.6 11.64 77.576 11.28 77.528 10.944C76.88 11.604 76.1 12.156 75.212 12.612L74.744 11.904C75.848 11.4 76.724 10.776 77.36 10.056C77.24 9.636 77.096 9.264 76.904 8.928C76.388 9.3 75.764 9.672 75.032 10.032L74.576 9.312C75.272 9.024 75.896 8.676 76.448 8.244C76.088 7.812 75.644 7.44 75.14 7.152L75.776 6.612C76.28 6.924 76.712 7.296 77.06 7.728C77.42 7.38 77.768 6.996 78.092 6.564ZM79.004 8.664H81.476C81.5 7.8 81.512 7.128 81.512 6.66H82.376C82.376 7.224 82.364 7.896 82.352 8.664H85.112V9.48H82.424C82.904 11.424 83.888 12.936 85.4 13.992L84.824 14.64C83.444 13.596 82.52 12.264 82.064 10.632C81.584 12.252 80.672 13.608 79.34 14.688L78.764 14.064C80.324 12.756 81.212 11.232 81.428 9.48H79.004V8.664ZM83.576 6.408C84.176 6.984 84.632 7.488 84.956 7.92L84.308 8.376C83.972 7.896 83.516 7.368 82.928 6.804L83.576 6.408ZM88.136 9.66C87.716 10.056 87.26 10.44 86.756 10.8L86.504 9.972C87.776 9.024 88.712 7.944 89.288 6.744L90.032 7.08C89.744 7.668 89.396 8.22 88.976 8.748V14.7H88.136V9.66ZM89.24 3.684L89.96 4.02C89.3 5.316 88.22 6.468 86.72 7.476L86.468 6.636C87.74 5.772 88.664 4.788 89.24 3.684ZM90.812 4.116H96.488V7.944H90.812V4.116ZM95.66 7.248V6.36H91.64V7.248H95.66ZM91.64 5.7H95.66V4.812H91.64V5.7ZM90.284 8.796H97.208V9.552H95.756V10.572H97.484V11.328H95.756V13.632C95.756 14.292 95.408 14.628 94.712 14.628H93.38L93.2 13.812C93.632 13.848 94.028 13.872 94.412 13.872C94.736 13.872 94.904 13.716 94.904 13.428V11.328H89.852V10.572H94.904V9.552H90.284V8.796ZM91.544 11.688C92.228 12.348 92.756 12.936 93.116 13.452L92.456 13.908C92.06 13.356 91.544 12.756 90.92 12.132L91.544 11.688ZM98.06 4.932H99.14L101.816 12.432H101.852L104.528 4.932H105.608L102.44 13.5H101.228L98.06 4.932ZM106.6 4.932H107.572V13.5H106.6V4.932ZM109.376 4.932H112.88C114.848 4.932 115.832 5.772 115.832 7.452C115.832 9.144 114.836 9.996 112.868 9.996H110.36V13.5H109.376V4.932ZM110.36 5.784V9.144H112.82C113.516 9.144 114.02 9 114.356 8.724C114.68 8.448 114.848 8.028 114.848 7.452C114.848 6.876 114.68 6.456 114.344 6.204C114.008 5.916 113.504 5.784 112.82 5.784H110.36Z" fill="#CEBFB0"/>
<path d="M127.244 10.044C128.468 11.604 129.404 12.948 130.052 14.1L128.984 14.844C128.804 14.52 128.612 14.196 128.42 13.872C125.66 14.112 123.044 14.304 120.572 14.436L120.368 13.416C121.34 12.9 122.324 11.676 123.332 9.744H119.612V8.52H124.364V6.66H120.356V5.448H124.364V3.672H125.636V5.448H129.62V6.66H125.636V8.52H130.376V9.744H124.736C123.992 11.28 123.236 12.444 122.492 13.26C124.928 13.092 126.68 12.948 127.76 12.828C127.304 12.144 126.8 11.436 126.236 10.692L127.244 10.044ZM132.524 3.744C133.244 4.38 133.856 5.016 134.348 5.652L133.496 6.504C133.064 5.904 132.464 5.244 131.696 4.536L132.524 3.744ZM139.508 14.556C138.824 14.556 138.08 14.544 137.276 14.532C136.46 14.52 135.788 14.448 135.26 14.328C134.756 14.184 134.324 13.908 133.964 13.5C133.796 13.296 133.64 13.2 133.496 13.2C133.304 13.2 132.932 13.728 132.404 14.808L131.528 13.98C132.044 13.044 132.512 12.444 132.932 12.168V8.832H131.588V7.68H134.108V12.228L134.252 12.372C134.552 12.684 134.852 12.924 135.14 13.08C135.5 13.26 136.052 13.356 136.784 13.38C137.504 13.392 138.356 13.404 139.328 13.404C139.928 13.404 140.528 13.392 141.152 13.392C141.764 13.368 142.232 13.344 142.556 13.32L142.256 14.556H139.508ZM135.056 4.428H136.148C136.22 4.14 136.28 3.852 136.316 3.564L137.552 3.732C137.492 3.972 137.42 4.212 137.336 4.428H138.632V7.008C139.088 6.096 139.412 4.956 139.592 3.588L140.732 3.804C140.636 4.332 140.528 4.836 140.408 5.292H142.472V6.456H142.004C141.956 7.728 141.764 8.856 141.452 9.84C141.824 10.488 142.184 11.208 142.544 12L141.728 12.816C141.476 12.192 141.212 11.604 140.948 11.064C140.516 11.88 139.976 12.552 139.328 13.104L138.704 12.084C139.388 11.532 139.916 10.8 140.288 9.864C139.952 9.324 139.604 8.832 139.244 8.376L139.868 7.644C140.132 7.932 140.396 8.256 140.66 8.616C140.804 7.956 140.888 7.236 140.924 6.456H140.012C139.712 7.176 139.364 7.788 138.956 8.292L138.632 7.884V7.944H137.252L137.444 8.424H139.004V9.468H136.76L136.688 9.912H138.704C138.704 11.352 138.608 12.228 138.416 12.54C138.224 12.852 137.888 13.008 137.408 13.02H136.736L136.424 12H137.12C137.312 11.988 137.444 11.916 137.504 11.796C137.552 11.664 137.576 11.352 137.588 10.872H136.484C136.436 11.04 136.376 11.184 136.328 11.316C136.088 11.88 135.728 12.384 135.26 12.84L134.552 11.928C134.912 11.592 135.176 11.208 135.356 10.788C135.5 10.428 135.608 9.996 135.68 9.468H134.708V8.424H136.268L136.076 7.944H135.056V4.428ZM137.588 7.116V6.588H136.1V7.116H137.588ZM136.1 5.772H137.588V5.256H136.1V5.772ZM150.176 3.648H151.388V4.308H154.232V5.316H151.388V5.82H153.812V6.804H151.388V7.32H154.52V8.352H147.08V7.32H150.176V6.804H147.92V5.82H150.176V5.316H147.416V4.308H150.176V3.648ZM149.084 11.376V11.964H152.516V11.376H149.084ZM152.516 10.44V9.84H149.084V10.44H152.516ZM149.084 12.912V14.748H147.908V8.832H153.716V13.512C153.716 14.28 153.32 14.676 152.54 14.676H151.544L151.244 13.584L152.192 13.632C152.408 13.632 152.516 13.5 152.516 13.248V12.912H149.084ZM145.136 3.732C145.892 4.308 146.54 4.896 147.08 5.472L146.216 6.336C145.76 5.784 145.1 5.208 144.248 4.584L145.136 3.732ZM143.432 7.188H146.24V12.084C146.528 11.808 146.816 11.508 147.116 11.196L147.452 12.516C146.732 13.224 145.976 13.86 145.184 14.424L144.716 13.296C144.92 13.116 145.028 12.888 145.028 12.624V8.388H143.432V7.188ZM155.6 7.284L161.66 9.9V10.908L155.6 13.524V12.288L160.04 10.404L155.6 8.52V7.284Z" fill="url(#paint1_linear_31_1888)"/>
<path d="M119 15.78H162.26V16.74H119V15.78Z" fill="url(#paint2_linear_31_1888)"/>
<defs>
<linearGradient id="paint0_linear_31_1888" x1="48" y1="9" x2="0" y2="9" gradientUnits="userSpaceOnUse">
<stop stop-color="#DBA131"/>
<stop offset="1" stop-color="#F0CC83"/>
</linearGradient>
<linearGradient id="paint1_linear_31_1888" x1="141" y1="17" x2="128.987" y2="5.63284" gradientUnits="userSpaceOnUse">
<stop stop-color="#F72525"/>
<stop offset="1" stop-color="#FF5E42"/>
</linearGradient>
<linearGradient id="paint2_linear_31_1888" x1="141" y1="17" x2="128.987" y2="5.63284" gradientUnits="userSpaceOnUse">
<stop stop-color="#F72525"/>
<stop offset="1" stop-color="#FF5E42"/>
</linearGradient>
</defs>
</svg>
