<svg width="90" height="30" viewBox="0 0 90 30" fill="none" xmlns="http://www.w3.org/2000/svg">
<rect width="90" height="30" rx="15" fill="url(#paint0_linear_29_1888)"/>
<path d="M12.364 10.596H16.876C16.924 10.248 16.96 9.912 16.996 9.588L18.268 9.768C18.232 10.056 18.196 10.332 18.172 10.596H22.636V11.772H17.98C17.932 12.012 17.872 12.252 17.824 12.492H21.184V19.416H22.876V20.556H12.136V19.416H13.768V12.492H16.54L16.684 11.772H12.364V10.596ZM15.016 19.416H19.936V18.708H15.016V19.416ZM15.016 17.724H19.936V17.004H15.016V17.724ZM15.016 16.02H19.936V15.324H15.016V16.02ZM15.016 14.328H19.936V13.596H15.016V14.328ZM29.884 11.724H28.264V10.596H30.7C30.58 10.296 30.46 10.02 30.316 9.756L31.612 9.54C31.732 9.852 31.84 10.212 31.96 10.596H34.564V11.724H33.136L33.736 11.94C33.544 12.444 33.328 12.9 33.088 13.32H34.78V14.508H27.976V13.32H29.62C29.428 12.888 29.212 12.504 28.996 12.156L29.884 11.724ZM30.808 13.32H31.768C32.044 12.816 32.284 12.276 32.488 11.724H30.04C30.316 12.216 30.568 12.744 30.808 13.32ZM25.468 20.64H24.412L24.136 19.428C24.448 19.476 24.748 19.5 25.036 19.5C25.3 19.5 25.432 19.356 25.432 19.092V16.656C25.012 16.812 24.592 16.956 24.172 17.1L23.848 15.84C24.388 15.72 24.916 15.576 25.432 15.384V13.02H24.1V11.808H25.432V9.684H26.704V11.808H27.568V13.02H26.704V14.856C26.992 14.712 27.268 14.568 27.544 14.424V15.696C27.256 15.84 26.98 15.972 26.704 16.104V19.416C26.704 20.232 26.284 20.64 25.468 20.64ZM30.148 14.64L31.36 14.784C31.264 15.036 31.156 15.276 31.06 15.516H34.984V16.716H33.76C33.58 17.484 33.256 18.132 32.8 18.684C33.532 19.008 34.24 19.356 34.924 19.74L34.24 20.736C33.616 20.352 32.848 19.932 31.912 19.5C31.108 20.052 29.872 20.484 28.204 20.82L27.724 19.692C28.9 19.476 29.848 19.212 30.556 18.888C29.884 18.6 29.176 18.3 28.408 18C28.696 17.556 28.948 17.124 29.188 16.716H27.82V15.516H29.788C29.932 15.204 30.052 14.916 30.148 14.64ZM32.584 16.716H30.448C30.28 16.992 30.112 17.256 29.944 17.508C30.52 17.712 31.096 17.94 31.66 18.18C32.08 17.772 32.392 17.292 32.584 16.716ZM36.76 10.248H46.264V11.46H44.38V14.22H46.864V15.432H44.38V20.58H43.12V15.432H40.012C39.892 16.608 39.652 17.604 39.304 18.408C38.836 19.416 38.068 20.196 37 20.736L36.316 19.668C37.288 19.104 37.936 18.396 38.272 17.556C38.488 16.956 38.644 16.248 38.74 15.432H36.148V14.22H38.824C38.824 14.148 38.836 14.088 38.836 14.016V11.46H36.76V10.248ZM40.108 11.46V14.016C40.108 14.088 40.096 14.148 40.096 14.22H43.12V11.46H40.108ZM49.168 9.744C49.96 10.38 50.644 11.016 51.196 11.64L50.32 12.504C49.852 11.904 49.18 11.244 48.316 10.548L49.168 9.744ZM56.008 20.556C55.348 20.556 54.628 20.544 53.86 20.532C53.08 20.52 52.444 20.448 51.94 20.328C51.46 20.184 51.04 19.908 50.68 19.5C50.512 19.296 50.368 19.2 50.236 19.2C49.996 19.2 49.588 19.728 48.988 20.808L48.064 19.956C48.664 18.996 49.192 18.384 49.672 18.12V14.832H48.088V13.68H50.836V18.24L50.968 18.372C51.244 18.684 51.52 18.924 51.808 19.08C52.156 19.26 52.684 19.356 53.392 19.38C54.088 19.392 54.892 19.404 55.828 19.404C56.428 19.404 57.028 19.392 57.652 19.392C58.264 19.368 58.732 19.344 59.056 19.32L58.756 20.556H56.008ZM53.884 11.016H51.616V9.984H58.252V10.86C57.568 11.436 56.836 11.94 56.044 12.36L56.068 12.384H58.492V17.7C58.492 18.444 58.084 18.828 57.268 18.828H56.368L56.092 17.796L56.92 17.832C57.184 17.832 57.316 17.7 57.316 17.448V16.944H55.708V18.888H54.556V16.944H52.996V18.9H51.82V12.384H54.484C54.112 12.144 53.704 11.892 53.248 11.64L53.884 11.016ZM55.288 11.784C55.744 11.544 56.164 11.292 56.56 11.016H54.16C54.568 11.28 54.952 11.532 55.288 11.784ZM52.996 15.18V15.936H54.556V15.18H52.996ZM55.708 15.18V15.936H57.316V15.18H55.708ZM57.316 14.172V13.416H55.708V14.172H57.316ZM54.556 14.172V13.416H52.996V14.172H54.556ZM59.56 10.932H61.084L63.436 17.916H63.472L65.824 10.932H67.348L64.3 19.5H62.608L59.56 10.932ZM68.2502 10.932H69.6542V19.5H68.2502V10.932ZM71.3322 10.932H74.8842C76.9482 10.932 77.9922 11.808 77.9922 13.56C77.9922 15.324 76.9482 16.212 74.8602 16.212H72.7362V19.5H71.3322V10.932ZM72.7362 12.132V15.012H74.7762C75.4002 15.012 75.8562 14.892 76.1442 14.676C76.4322 14.448 76.5762 14.076 76.5762 13.56C76.5762 13.044 76.4202 12.684 76.1322 12.468C75.8442 12.24 75.3882 12.132 74.7762 12.132H72.7362Z" fill="#51402E"/>
<defs>
<linearGradient id="paint0_linear_29_1888" x1="90" y1="15" x2="0" y2="15" gradientUnits="userSpaceOnUse">
<stop stop-color="#DBA131"/>
<stop offset="1" stop-color="#F0CC83"/>
</linearGradient>
</defs>
</svg>
