<svg width="30" height="30" viewBox="0 0 30 30" fill="none" xmlns="http://www.w3.org/2000/svg">
<path d="M25.3686 4.68539C25.3686 4.68539 27.6813 3.77639 27.4886 5.98397C27.4244 6.89298 26.8462 10.0745 26.3965 13.5157L24.8547 23.7095C24.8547 23.7095 24.7263 25.2029 23.5699 25.4626C22.4135 25.7223 20.6791 24.5536 20.3578 24.2939C20.1008 24.0991 15.5398 21.1773 13.9337 19.7489C13.484 19.3593 12.9701 18.5801 13.9979 17.6711L20.7433 11.1783C21.5142 10.3991 22.2851 8.58114 19.073 10.7887L10.0792 16.957C10.0792 16.957 9.05137 17.6062 7.12417 17.0219L2.94847 15.7233C2.94847 15.7233 1.40667 14.7494 4.04057 13.7754C10.4647 10.7237 18.3664 7.60716 25.3686 4.68539Z" fill="url(#paint0_linear_51_5332)"/>
<defs>
<linearGradient id="paint0_linear_51_5332" x1="15.0156" y1="-3.46733" x2="15.0156" y2="27.7113" gradientUnits="userSpaceOnUse">
<stop stop-color="#A6D9FF"/>
<stop offset="1" stop-color="#008EFF"/>
</linearGradient>
</defs>
</svg>
