<svg width="28" height="28" viewBox="0 0 28 28" fill="none" xmlns="http://www.w3.org/2000/svg">
<path d="M13.0429 2.56748C13.4596 1.81084 14.5404 1.81084 14.9571 2.56748L18.3986 8.81593C18.5554 9.10066 18.8293 9.30099 19.1468 9.36314L26.1136 10.7271C26.9572 10.8923 27.2912 11.927 26.7051 12.5598L21.8653 17.7855C21.6447 18.0236 21.5401 18.3477 21.5795 18.6709L22.4437 25.7623C22.5484 26.621 21.674 27.2605 20.8951 26.895L14.4624 23.8762C14.1693 23.7386 13.8307 23.7386 13.5376 23.8762L7.10494 26.895C6.326 27.2605 5.45164 26.621 5.55629 25.7623L6.42053 18.6709C6.45991 18.3477 6.35529 18.0236 6.13474 17.7855L1.2949 12.5598C0.708841 11.927 1.04282 10.8923 1.88644 10.7271L8.85322 9.36314C9.17069 9.30099 9.44459 9.10066 9.60141 8.81593L13.0429 2.56748Z" fill="url(#paint0_linear_82_6755)"/>
<defs>
<linearGradient id="paint0_linear_82_6755" x1="14" y1="0.829699" x2="14" y2="30.5749" gradientUnits="userSpaceOnUse">
<stop stop-color="white" stop-opacity="0.95"/>
<stop offset="0.295" stop-color="white"/>
<stop offset="1" stop-color="white" stop-opacity="0.85"/>
</linearGradient>
</defs>
</svg>
