<svg width="28" height="28" viewBox="0 0 28 28" fill="none" xmlns="http://www.w3.org/2000/svg">
<path fill-rule="evenodd" clip-rule="evenodd" d="M12.375 27C19.5547 27 27 18.6572 27 12.375C27 6.09276 21.1797 1 14 1C6.8203 1 1 6.09276 1 12.375C1 18.4185 6.38628 23.3612 13.1875 23.7281C13.1875 24.6955 12.9072 25.375 12.6758 25.9357C12.5133 26.3295 12.375 26.6648 12.375 27ZM5 12C5 10.8954 5.89543 10 7 10C8.10457 10 9 10.8954 9 12C9 13.1046 8.10457 14 7 14C5.89543 14 5 13.1046 5 12ZM12 12C12 10.8954 12.8954 10 14 10C15.1046 10 16 10.8954 16 12C16 13.1046 15.1046 14 14 14C12.8954 14 12 13.1046 12 12ZM19 12C19 10.8954 19.8954 10 21 10C22.1046 10 23 10.8954 23 12C23 13.1046 22.1046 14 21 14C19.8954 14 19 13.1046 19 12Z" fill="url(#paint0_linear_82_6829)"/>
<defs>
<linearGradient id="paint0_linear_82_6829" x1="14" y1="-0.217113" x2="14" y2="30.7179" gradientUnits="userSpaceOnUse">
<stop stop-color="white" stop-opacity="0.95"/>
<stop offset="0.295" stop-color="white"/>
<stop offset="1" stop-color="white" stop-opacity="0.85"/>
</linearGradient>
</defs>
</svg>
