<svg width="18" height="18" viewBox="0 0 18 18" fill="none" xmlns="http://www.w3.org/2000/svg">
<path d="M14.9853 16H3.01472C2.39879 16 1.91329 15.4649 2.01305 14.8722C2.56511 11.5944 5.48311 9.09383 9 9.09383C12.5169 9.09383 15.4349 11.5944 15.987 14.8722C16.0867 15.4649 15.6012 16 14.9853 16Z" fill="#7CEB94"/>
<path d="M5.14761 4.75739C5.14761 5.25082 5.24725 5.73942 5.44085 6.19528C5.63446 6.65115 5.91822 7.06536 6.27595 7.41427C6.63368 7.76318 7.05836 8.03994 7.52576 8.22877C7.99315 8.4176 8.4941 8.51478 9 8.51478C9.50591 8.51478 10.0069 8.4176 10.4743 8.22877C10.9416 8.03994 11.3663 7.76318 11.7241 7.41427C12.0818 7.06536 12.3656 6.65115 12.5592 6.19528C12.7528 5.73942 12.8524 5.25082 12.8524 4.75739C12.8524 4.26396 12.7528 3.77537 12.5592 3.3195C12.3656 2.86363 12.0818 2.44942 11.7241 2.10051C11.3663 1.75161 10.9416 1.47484 10.4743 1.28601C10.0069 1.09719 9.50591 1 9 1C8.4941 1 7.99315 1.09719 7.52576 1.28601C7.05836 1.47484 6.63368 1.75161 6.27595 2.10051C5.91822 2.44942 5.63446 2.86363 5.44085 3.3195C5.24725 3.77537 5.14761 4.26396 5.14761 4.75739Z" fill="#7CEB94"/>
</svg>
