<svg width="18" height="18" viewBox="0 0 18 18" fill="none" xmlns="http://www.w3.org/2000/svg">
<path d="M15.2009 6.64575L14.8512 6.99544L11.0046 3.14884L11.3542 2.79914C12.0536 2.09976 13.0153 1.83749 13.9769 2.09976C14.9386 2.36203 15.638 3.06141 15.9002 4.02306C16.1625 4.98472 15.9002 5.94637 15.2009 6.64575ZM7.59506 14.2515H14.2392C14.7637 14.2515 15.1134 14.6012 15.1134 15.1258C15.1134 15.6503 14.7637 16 14.2392 16H2.61196H2.52454C2.34969 16 2.26227 16 2.08742 15.8252C2 15.7377 2 15.4755 2 15.3006L2.87423 11.9785C3.04907 11.454 3.31134 10.9295 3.74846 10.4924L7.15795 7.08287L9.69321 4.5476L13.5398 8.39421L11.0046 10.9295L7.59506 14.2515Z" fill="#5898E7"/>
</svg>
